<?xml version="1.0" standalone="no"?>
<!DOCTYPE svg PUBLIC "-//W3C//DTD SVG 20010904//EN"
 "http://www.w3.org/TR/2001/REC-SVG-20010904/DTD/svg10.dtd">
<svg version="1.0" xmlns="http://www.w3.org/2000/svg"
 width="500.000000pt" height="750.000000pt" viewBox="0 0 500.000000 750.000000"
 preserveAspectRatio="xMidYMid meet">
<metadata>
Created by potrace 1.16, written by Peter Selinger 2001-2019
</metadata>
<g transform="translate(0.000000,750.000000) scale(0.100000,-0.100000)"
fill="#000000" stroke="none">
<path d="M0 7249 c0 -257 6 -303 36 -278 8 6 18 9 22 5 4 -4 -1 -13 -10 -20
-10 -7 -15 -16 -11 -19 3 -4 3 -7 -2 -7 -4 0 -14 8 -21 18 -12 15 -13 13 -14
-22 0 -35 2 -38 24 -32 15 4 28 0 36 -9 6 -7 18 -11 26 -8 8 3 14 0 14 -6 0
-6 7 -8 15 -5 19 8 20 -10 1 -25 -11 -9 -18 -8 -33 7 -10 11 -31 18 -48 18
l-30 -1 -3 -128 c-2 -102 0 -127 10 -121 18 12 48 12 86 2 50 -14 29 -27 -38
-23 -64 3 -70 0 -43 -22 17 -14 17 -14 0 -9 -15 5 -17 -4 -16 -107 0 -62 3
-106 6 -99 2 6 12 12 21 12 14 -1 13 -4 -5 -19 l-23 -19 0 -3166 0 -3166 1081
0 1081 0 -3 185 c-2 102 -7 185 -11 185 -5 0 -13 -10 -18 -22 -8 -17 -9 -11
-5 27 4 30 2 45 -3 37 -6 -8 -12 35 -17 115 -11 169 -11 202 -3 239 5 22 2 37
-8 50 -15 18 -15 18 -10 -7 4 -17 0 -31 -9 -39 -10 -9 -15 -9 -15 -1 0 6 5 11
11 11 8 0 8 4 1 13 -6 6 -13 29 -17 50 -4 20 -10 37 -14 37 -3 0 -6 27 -6 60
0 36 4 58 10 56 6 -2 9 -8 8 -15 -2 -6 2 -33 8 -61 14 -65 33 -55 26 14 -3 28
-3 42 0 31 3 -11 9 -24 14 -29 9 -10 14 41 13 131 -1 60 13 44 22 -25 4 -31 9
-51 11 -44 3 6 8 10 13 7 10 -6 5 162 -5 187 -4 11 -3 18 4 18 6 0 11 6 11 14
0 8 5 27 11 43 10 26 11 27 24 10 12 -17 13 -16 18 2 2 11 0 24 -6 30 -8 8 -8
14 1 23 10 10 14 8 19 -10 8 -33 33 -8 33 34 0 35 -8 42 -27 23 -7 -7 -12 -3
-17 15 -3 14 -12 23 -19 21 -20 -8 -18 52 4 93 11 20 29 44 40 54 17 14 18 22
9 68 -17 92 -13 188 10 217 11 15 17 29 14 32 -4 3 -9 0 -11 -6 -12 -33 -23
-7 -23 53 0 41 4 63 10 59 18 -11 37 18 29 45 -4 14 -8 21 -9 15 -1 -5 -5 0
-11 13 -10 25 -29 21 -29 -6 -1 -21 -59 -132 -60 -113 0 23 73 162 95 179 12
10 20 23 17 30 -2 6 1 12 8 12 25 0 59 55 60 96 0 28 6 47 20 59 11 10 20 28
20 40 0 11 6 28 13 36 19 23 66 51 77 44 18 -11 47 17 42 42 -2 13 -8 26 -12
28 -10 6 -23 -31 -16 -44 3 -5 -8 -11 -24 -15 -36 -7 -92 3 -84 15 3 5 0 9 -6
9 -8 0 -10 9 -6 23 3 13 1 39 -5 59 -9 35 -11 36 -39 28 -18 -5 -28 -5 -25 0
3 5 -6 17 -20 26 -13 9 -23 20 -20 24 3 4 -1 20 -9 35 -8 15 -12 34 -9 41 3 8
0 21 -7 29 -9 10 -9 15 -1 15 6 0 11 5 11 11 0 5 -5 7 -10 4 -7 -4 -9 2 -4 19
4 16 2 26 -5 26 -6 0 -8 -6 -5 -14 3 -8 0 -17 -7 -22 -8 -4 -10 -3 -5 4 4 7 3
12 -2 12 -5 0 -12 18 -16 40 -7 42 -14 48 -34 28 -8 -8 -12 -9 -12 -1 0 6 6
13 13 16 9 3 8 8 -3 22 -15 19 -15 56 1 66 5 3 2 20 -7 38 -15 29 -15 34 0 50
18 20 21 41 6 41 -12 0 -13 62 0 116 5 22 30 77 55 123 25 45 43 86 40 90 -2
5 2 33 9 62 8 30 14 72 14 94 0 27 6 44 20 56 27 21 180 49 307 56 l101 6 12
-50 c10 -37 10 -56 2 -79 -11 -27 -14 -105 -7 -164 2 -14 -1 -33 -5 -42 -7
-14 -4 -18 8 -18 9 0 23 -8 30 -17 9 -13 16 -15 24 -7 17 17 40 88 30 94 -5 3
-3 13 4 22 7 10 16 15 19 11 11 -10 8 -71 -3 -78 -6 -4 -8 -10 -6 -14 3 -4 12
-53 21 -109 11 -71 13 -107 6 -120 -5 -10 -7 -29 -4 -42 4 -16 3 -21 -5 -16
-7 4 -12 15 -12 24 -1 14 -5 12 -21 -7 -11 -14 -18 -33 -16 -43 3 -10 1 -21
-4 -24 -13 -7 -11 -104 1 -104 6 0 13 7 16 15 6 15 44 21 44 7 0 -5 -9 -28
-21 -52 -15 -31 -23 -39 -29 -29 -5 7 -11 11 -13 9 -19 -20 -82 -416 -68 -425
21 -12 188 -3 261 15 19 5 68 11 109 14 l73 5 -20 -22 c-11 -12 -28 -35 -36
-52 -13 -24 -13 -33 -3 -50 10 -15 11 -45 7 -115 -4 -53 -8 -75 -9 -50 -2 41
-3 43 -12 20 -11 -25 -49 -318 -50 -378 -1 -56 -12 -26 -19 51 l-6 72 -8 -102
c-5 -57 -13 -103 -18 -103 -7 0 -8 25 -3 68 5 50 4 64 -5 56 -6 -6 -13 -53
-16 -103 -5 -104 -23 -161 -24 -76 0 36 -3 46 -10 35 -5 -8 -9 -31 -8 -50 0
-19 -3 -46 -7 -60 -4 -14 -9 -38 -10 -55 -4 -66 -28 -215 -35 -215 -14 0 -18
-65 -8 -110 6 -25 11 -63 13 -85 1 -22 3 -56 4 -75 2 -29 4 -32 11 -15 7 17 9
17 9 3 1 -23 18 -23 24 -1 4 14 5 12 6 -4 2 -41 36 -20 43 26 1 14 9 26 16 27
7 1 8 0 2 -3 -7 -3 -6 -11 1 -24 5 -11 13 -17 17 -15 5 3 14 0 22 -5 12 -8 12
-12 2 -16 -22 -9 -13 -31 18 -45 26 -11 30 -18 30 -51 0 -34 2 -37 19 -27 32
16 33 12 6 -28 -16 -25 -27 -56 -29 -89 -2 -28 -7 -57 -11 -63 -4 -7 -9 -58
-11 -114 -4 -107 -21 -229 -36 -259 -10 -19 -20 -138 -22 -267 -1 -41 -5 -81
-9 -87 -7 -10 111 -13 577 -13 458 0 585 3 589 13 4 10 6 10 6 0 1 -10 34 -13
130 -13 115 0 130 2 134 18 4 16 5 16 6 0 1 -17 18 -18 206 -18 l205 0 0 25
c0 17 5 25 18 25 10 0 13 -3 6 -8 -6 -4 -11 -15 -11 -25 0 -15 9 -17 74 -16
l73 2 0 3748 0 3749 -180 0 c-113 0 -180 -4 -180 -10 0 -5 -5 -10 -11 -10 -5
0 -8 4 -5 9 4 5 -95 10 -237 10 -205 2 -246 -1 -256 -13 -7 -8 -10 -20 -7 -25
4 -5 1 -13 -5 -17 -8 -5 -10 3 -7 25 l5 31 -84 0 c-49 0 -83 -4 -83 -10 0 -5
-5 -10 -11 -10 -5 0 -7 5 -4 10 3 6 1 10 -5 10 -6 0 -15 -10 -20 -22 l-9 -23
-6 22 c-7 20 -13 21 -134 22 -125 2 -128 1 -127 -20 1 -12 -6 -24 -14 -27 -12
-4 -13 -2 -3 9 25 30 0 38 -117 37 -93 -1 -117 -4 -127 -17 -10 -13 -14 -14
-22 -2 -5 8 -17 11 -32 6 -17 -4 -20 -4 -10 4 10 6 -37 10 -144 10 l-158 2 6
-31 c5 -23 3 -30 -9 -30 -13 0 -15 -7 -11 -30 5 -23 3 -30 -9 -30 -13 0 -14
-3 -5 -14 9 -11 9 -15 -1 -19 -10 -4 -10 -8 2 -16 10 -7 11 -11 3 -11 -20 0
-15 -17 7 -23 24 -6 26 -22 5 -31 -8 -3 -15 -1 -15 4 0 6 -4 10 -10 10 -5 0
-10 -9 -10 -20 0 -13 -10 -24 -26 -30 -33 -13 -34 -13 -34 4 0 8 -5 16 -11 18
-7 2 -11 29 -10 68 1 102 1 119 -9 170 -5 28 -22 -65 -21 -112 2 -47 1 -48
-28 -48 -16 0 -33 5 -36 10 -3 6 1 10 10 10 12 0 14 6 9 26 -4 17 -2 29 7 35
8 5 9 9 3 9 -7 0 -15 11 -18 25 -4 14 -11 25 -17 25 -8 0 -7 5 1 15 11 13 4
15 -58 15 -56 0 -71 -3 -76 -16 -4 -9 -9 -14 -12 -11 -3 3 -17 1 -31 -4 -21
-8 -26 -6 -30 10 -5 18 -16 19 -168 21 -157 1 -163 0 -158 -19 3 -13 -2 -23
-16 -30 -21 -12 -25 -6 -24 37 1 9 -226 12 -1103 12 l-1104 0 0 -251z m2690
205 c0 -16 -22 -44 -35 -44 -9 0 -12 -6 -8 -16 5 -12 7 -13 14 -2 7 10 11 10
21 0 10 -10 8 -14 -10 -19 -14 -3 -21 -11 -18 -19 3 -8 0 -11 -8 -8 -8 3 -17
1 -21 -5 -3 -6 1 -11 9 -11 17 0 22 -15 8 -24 -7 -4 -8 -51 -2 -66 1 -3 2 -8
1 -12 0 -5 4 -8 9 -8 7 0 7 -7 -1 -21 -8 -15 -8 -19 0 -15 6 4 11 4 11 -1 -1
-20 -18 -31 -48 -29 -17 1 -32 -1 -32 -6 0 -4 -5 -8 -11 -8 -6 0 -9 6 -6 14 4
9 0 12 -13 9 -14 -4 -17 0 -13 21 4 18 0 28 -11 32 -9 3 -14 10 -11 14 11 17
-8 38 -38 45 -18 4 -26 9 -20 12 8 3 11 14 7 28 -3 13 0 26 7 31 8 5 11 2 6
-8 -4 -12 -1 -14 14 -11 15 4 19 0 19 -18 0 -12 3 -19 7 -16 3 4 12 2 20 -4
10 -9 13 -7 13 8 0 11 3 23 7 27 4 3 8 16 10 28 4 27 14 37 20 21 3 -7 10 -13
16 -13 6 0 1 10 -11 23 -22 23 -22 24 -4 41 11 9 33 18 51 19 17 1 31 5 31 10
0 4 5 7 10 7 6 0 10 -3 10 -6z m593 -68 c0 -14 3 -26 8 -26 5 0 9 -9 9 -20 0
-18 11 -25 33 -21 11 2 4 -32 -8 -41 -6 -4 -2 -13 10 -22 19 -15 19 -15 -11
-16 -21 0 -36 -7 -45 -21 -12 -17 -18 -19 -39 -10 -16 6 -19 10 -8 10 27 1 78
51 77 74 -1 20 -2 20 -8 -3 -8 -27 -41 -41 -41 -17 0 9 -6 18 -12 20 -8 4 -4
8 10 12 12 4 22 15 22 24 0 9 -3 12 -8 6 -4 -6 -19 -16 -34 -22 -21 -9 -27
-19 -27 -45 -1 -56 -6 -88 -13 -88 -5 0 -8 7 -8 15 0 8 -4 15 -10 15 -5 0 -10
-5 -10 -10 0 -7 -5 -6 -13 2 -19 17 -9 58 14 58 13 0 19 7 19 24 0 16 7 27 20
31 21 7 27 30 10 40 -16 10 -12 25 5 19 18 -7 18 -4 5 30 -7 20 -6 25 8 29 24
5 45 -16 45 -47z m-2073 -153 c0 -17 17 -17 23 0 3 6 6 -7 6 -29 1 -42 -22
-78 -32 -52 -4 9 -6 9 -6 1 -1 -6 4 -15 9 -18 6 -3 10 -15 10 -26 0 -21 16
-26 23 -6 2 6 7 9 11 6 3 -3 -3 -15 -14 -27 -15 -16 -31 -21 -54 -19 -32 2
-41 17 -11 17 9 0 12 9 8 33 -6 39 -8 41 -29 33 -11 -4 -15 -14 -12 -31 3 -15
0 -26 -9 -29 -8 -3 -12 -2 -8 3 3 5 -9 21 -27 35 -18 14 -27 26 -19 26 8 0 23
-7 33 -17 21 -19 24 -5 4 22 -12 17 -11 22 13 47 18 20 32 26 46 21 17 -5 18
-4 7 10 -12 14 -11 16 7 14 12 -1 21 -7 21 -14z m80 -15 c0 -5 5 -6 11 -2 6 4
31 8 55 10 33 2 44 -1 44 -12 0 -8 7 -14 15 -14 8 0 15 -7 15 -15 0 -14 -3
-13 -25 1 -14 9 -28 14 -32 10 -3 -3 -1 -6 5 -6 7 0 4 -14 -8 -35 -15 -26 -17
-37 -8 -40 7 -2 20 -6 28 -8 8 -3 -10 -6 -40 -6 -39 -1 -51 -4 -40 -11 13 -8
12 -10 -2 -10 -10 0 -18 5 -18 11 0 5 -5 7 -10 4 -8 -5 -7 -11 1 -21 12 -15 2
-19 -19 -6 -9 6 -4 16 17 38 21 22 27 34 20 45 -5 8 -9 10 -9 4 0 -11 -51 -37
-58 -30 -2 2 3 11 11 19 8 9 13 25 10 36 -3 11 -3 26 0 33 6 15 37 19 37 5z
m1458 -173 c-3 -14 -1 -25 3 -25 15 0 10 -92 -7 -140 -9 -25 -18 -79 -20 -120
-2 -41 -11 -133 -18 -205 -15 -135 -17 -471 -3 -492 5 -8 4 -13 -2 -13 -6 0
-11 -7 -11 -15 0 -18 11 -19 30 -2 11 9 11 8 0 -7 -10 -13 -15 -46 -16 -103
l-1 -83 39 -6 c42 -7 56 -20 39 -37 -8 -8 -11 -8 -11 0 0 13 -58 29 -67 19 -4
-3 2 -12 12 -19 16 -13 17 -15 1 -39 -17 -26 -13 -40 10 -31 18 7 18 -5 -1
-23 -18 -19 -19 -54 -2 -97 8 -20 12 -61 9 -112 -6 -122 -5 -135 6 -200 7 -42
10 -50 11 -27 1 29 4 33 24 30 14 -2 20 -9 17 -18 -9 -30 -2 -98 14 -130 17
-36 21 -54 8 -46 -4 2 -6 -12 -4 -32 2 -28 1 -33 -7 -22 -9 12 -11 11 -11 -8
0 -32 -20 -17 -22 16 0 15 -6 -22 -12 -83 -6 -60 -10 -118 -8 -128 5 -19 15
-10 74 64 l27 34 -1 -33 c-1 -17 -5 -32 -9 -32 -4 0 -10 -8 -13 -18 -4 -10
-15 -27 -25 -38 -10 -11 -27 -40 -38 -65 -17 -38 -19 -66 -18 -206 0 -124 4
-166 14 -175 11 -10 12 -10 7 0 -4 6 -3 12 3 12 17 0 21 -16 11 -50 -11 -37
-5 -53 11 -30 8 11 8 8 3 -10 -5 -14 -9 -59 -10 -100 -1 -97 -2 -102 -13 -96
-5 3 -14 -1 -21 -9 -12 -14 -6 -19 20 -17 4 0 6 -22 6 -49 l0 -49 -50 -1 c-28
-1 -119 -3 -202 -4 -149 -3 -152 -2 -164 20 -10 19 -9 30 9 70 12 26 21 53 21
61 0 15 79 164 97 182 21 22 25 57 11 103 -13 44 -19 216 -7 221 3 2 9 15 13
31 5 21 3 27 -9 27 -13 0 -14 4 -5 20 10 18 16 89 10 115 -1 6 -2 22 -1 37 1
20 5 26 16 22 10 -4 15 0 15 15 0 12 -4 21 -10 21 -5 0 -10 7 -10 15 0 8 5 15
11 15 8 0 9 25 4 83 -13 167 -16 319 -5 312 7 -4 9 10 6 42 -3 26 -6 86 -7
133 -2 47 -6 93 -11 103 -4 9 -13 27 -19 38 -8 17 -8 24 2 30 7 4 17 5 21 3 4
-3 13 7 20 21 10 22 9 28 -3 36 -11 7 -11 9 0 9 10 0 12 12 7 53 -3 28 -6 58
-6 66 0 11 -5 10 -20 -4 -11 -10 -20 -14 -20 -10 0 5 -5 4 -10 -1 -12 -12 -70
-6 -70 7 0 9 28 14 63 11 10 -1 28 5 40 13 12 8 18 15 14 15 -5 0 -5 6 0 13 4
6 8 57 9 112 0 55 8 154 18 220 14 91 19 185 20 390 2 232 4 277 20 322 10 28
25 58 34 66 14 12 73 31 116 36 4 1 6 -10 4 -24z m570 -304 c3 -20 0 -23 -18
-18 -19 5 -21 2 -17 -26 6 -50 17 -67 43 -67 33 0 30 -13 -6 -27 -25 -10 -30
-9 -30 5 0 23 -14 5 -17 -24 -3 -22 -1 -24 15 -15 17 9 20 6 26 -36 3 -25 4
-48 2 -51 -11 -10 -46 11 -46 29 0 11 -7 19 -16 19 -10 0 -14 6 -10 18 13 48
17 102 7 102 -6 0 -11 5 -11 11 0 6 7 8 16 5 14 -5 15 -4 4 9 -10 12 -16 13
-26 4 -11 -9 -22 -7 -47 5 -32 17 -32 17 -4 13 26 -4 27 -2 23 24 -2 16 0 31
5 35 5 3 9 0 9 -5 0 -6 5 -11 10 -11 6 0 10 6 10 13 0 7 14 12 38 12 31 0 38
-4 40 -24z m-1377 -754 c21 6 23 5 10 -10 -10 -13 -18 -14 -33 -6 -17 9 -19 8
-16 -8 2 -11 11 -17 23 -15 16 3 17 1 7 -11 -10 -12 -9 -16 3 -21 9 -3 14 -10
10 -15 -8 -14 32 -33 56 -26 11 4 16 11 13 17 -5 8 -1 9 10 5 9 -4 15 -3 12 2
-7 11 20 34 32 27 5 -3 13 9 17 27 4 17 9 26 12 20 6 -16 40 -17 45 -2 3 8 19
10 52 5 39 -6 45 -10 35 -22 -9 -11 -7 -14 12 -14 23 -1 23 -1 -4 -16 -27 -15
-28 -16 -12 -34 21 -23 12 -55 -12 -46 -14 6 -14 3 3 -15 10 -12 14 -19 7 -16
-19 12 -43 -4 -43 -29 0 -15 -9 -29 -27 -38 -33 -18 -25 -21 12 -4 14 6 25 16
25 21 0 6 9 -1 21 -14 11 -13 24 -24 29 -24 17 0 21 -13 6 -18 -9 -4 -18 -2
-21 3 -4 6 -11 10 -17 10 -7 0 -6 -5 2 -15 6 -8 9 -23 5 -36 -6 -17 -13 -20
-34 -16 -22 5 -27 2 -28 -14 -2 -25 24 -36 49 -20 28 17 34 7 9 -18 -11 -11
-16 -21 -11 -23 4 -2 2 -8 -5 -15 -10 -9 -17 -7 -33 7 -11 10 -22 25 -24 32
-6 17 -64 -3 -61 -20 2 -6 -4 -9 -12 -6 -8 4 -15 10 -15 15 0 4 -7 6 -15 3
-11 -5 -14 -2 -9 12 6 16 2 15 -19 -5 -15 -14 -30 -22 -33 -18 -4 3 -16 0 -28
-8 -11 -8 -27 -15 -36 -15 -26 0 43 49 70 50 18 0 21 3 11 9 -10 6 -11 17 -6
37 5 16 7 35 6 42 -1 6 6 12 16 12 14 0 15 2 4 9 -8 5 -10 14 -6 21 5 8 4 11
-3 6 -5 -3 -12 -1 -14 6 -3 9 -12 9 -37 -1 -25 -11 -38 -11 -57 -2 -14 6 -23
7 -20 2 8 -13 -52 -19 -64 -7 -8 8 -9 6 -5 -6 4 -9 15 -18 26 -21 10 -3 17 -1
13 4 -3 5 1 9 10 9 8 0 16 -6 19 -12 3 -10 9 -10 25 -1 13 8 23 9 27 3 3 -5
-7 -12 -22 -16 -45 -9 -53 -13 -53 -22 0 -5 14 -6 31 -4 22 3 30 1 25 -7 -4
-6 -12 -9 -17 -6 -5 4 -9 2 -9 -3 0 -5 -9 -12 -20 -15 -17 -4 -18 -9 -10 -38
13 -43 13 -42 -6 -35 -8 3 -12 2 -9 -4 3 -6 1 -10 -5 -10 -7 0 -5 -6 4 -15 8
-8 20 -15 26 -15 6 0 -2 -11 -18 -25 -17 -14 -32 -25 -35 -25 -11 0 -15 45 -6
57 13 15 3 33 -17 33 -17 0 -19 17 -1 23 8 3 6 10 -8 26 -14 16 -26 20 -43 16
-13 -3 -21 -2 -18 3 3 6 21 13 39 16 30 6 34 9 29 33 -3 18 -1 24 7 19 15 -10
14 7 -1 23 -11 10 -9 15 7 28 15 12 17 17 6 20 -9 4 -10 8 -2 12 6 4 12 18 13
31 2 14 7 28 12 31 15 11 12 53 -4 66 -13 11 -13 14 -1 22 7 5 11 13 7 19 -3
5 1 15 9 22 13 11 18 10 29 -5 12 -17 13 -17 19 5 5 18 9 21 20 12 7 -6 24 -8
38 -5z m15 -501 c4 -17 7 -37 7 -43 0 -7 3 -13 8 -13 5 0 8 15 7 33 -2 25 1
32 15 31 9 -1 17 2 17 7 0 5 5 9 12 9 9 0 9 -3 0 -12 -18 -18 -15 -28 8 -28
11 0 20 5 20 10 0 16 27 11 34 -6 4 -11 2 -15 -8 -11 -8 3 -20 -1 -26 -9 -7
-8 -20 -14 -29 -14 -13 0 -14 -2 -2 -9 8 -5 20 -7 28 -4 8 3 13 2 12 -3 -6
-33 2 -45 24 -39 12 4 27 12 32 17 7 7 3 8 -11 4 -15 -4 -24 -2 -28 9 -5 14 6
20 28 16 5 -1 16 5 26 14 14 12 20 13 26 4 4 -7 1 -17 -7 -23 -8 -6 -13 -19
-11 -29 2 -12 -3 -20 -16 -24 -11 -3 -23 -15 -26 -26 -5 -19 -8 -20 -16 -7 -6
10 -10 11 -10 3 0 -7 -9 -13 -20 -13 -17 0 -19 3 -10 19 5 11 10 22 10 26 0
11 -52 -1 -60 -15 -11 -19 -1 -34 14 -21 8 7 12 4 13 -12 2 -17 0 -19 -7 -7
-5 8 -10 11 -10 7 0 -4 -8 -4 -17 1 -11 7 -23 6 -35 -2 -14 -8 -20 -8 -26 1
-8 13 -32 18 -52 10 -37 -14 -80 -16 -80 -4 0 17 58 67 79 67 23 1 55 27 42
35 -6 3 -11 14 -11 23 1 16 2 16 14 0 19 -25 25 -22 22 10 -3 24 -7 27 -36 25
-24 -1 -29 1 -22 10 6 7 24 13 40 13 26 1 31 -3 38 -30z m802 -1546 c27 -18
31 -63 5 -53 -12 5 -15 2 -10 -10 3 -9 2 -17 -3 -17 -6 0 -10 20 -10 45 0 25
-4 45 -10 45 -5 0 -10 -20 -10 -45 0 -46 -7 -54 -28 -33 -9 9 -12 9 -12 0 0
-7 -7 -12 -15 -12 -11 0 -15 13 -17 48 l-1 47 -6 -45 c-4 -32 -11 -46 -23 -48
-12 -2 -18 3 -19 15 -1 16 -2 17 -6 1 -5 -20 -33 -25 -33 -6 0 9 -3 9 -12 0
-7 -7 -16 -12 -20 -12 -13 0 -9 88 4 92 32 11 204 1 226 -12z"/>
<path d="M2470 1430 c0 -6 -12 -36 -26 -67 -19 -39 -25 -65 -21 -88 3 -18 1
-50 -3 -71 -6 -24 -5 -40 0 -42 6 -2 10 -15 10 -28 0 -14 -4 -23 -8 -20 -12 7
-2 -96 9 -108 5 -6 9 -19 9 -30 0 -17 2 -18 10 -6 5 8 10 32 10 52 0 20 5 38
11 40 6 2 13 35 15 73 2 39 8 81 13 95 17 45 20 114 8 150 -13 37 -37 70 -37
50z"/>
<path d="M2739 1428 c-1 -7 -1 -19 0 -26 1 -6 -5 -27 -13 -45 -41 -88 -75
-303 -56 -352 10 -27 47 -30 60 -5 24 45 52 370 36 418 -8 24 -25 30 -27 10z"/>
</g>
</svg>
