<?xml version="1.0" standalone="no"?>
<!DOCTYPE svg PUBLIC "-//W3C//DTD SVG 20010904//EN"
 "http://www.w3.org/TR/2001/REC-SVG-20010904/DTD/svg10.dtd">
<svg version="1.0" xmlns="http://www.w3.org/2000/svg"
 width="500.000000pt" height="333.000000pt" viewBox="0 0 500.000000 333.000000"
 preserveAspectRatio="xMidYMid meet">
<metadata>
Created by potrace 1.16, written by Peter Selinger 2001-2019
</metadata>
<g transform="translate(0.000000,333.000000) scale(0.100000,-0.100000)"
fill="#000000" stroke="none">
<path d="M3325 3320 c3 -5 15 -10 25 -10 29 0 90 -32 90 -47 0 -7 7 -13 15
-13 9 0 29 -10 45 -21 17 -13 48 -23 77 -25 59 -5 103 -22 103 -40 0 -8 8 -14
18 -14 34 0 60 -52 31 -62 -7 -2 -4 -10 7 -18 16 -13 17 -13 9 0 -8 13 -6 13
8 1 9 -7 40 -14 69 -16 37 -2 56 -8 68 -23 15 -19 196 -72 245 -72 11 0 33 -7
49 -15 15 -8 41 -15 57 -15 15 0 30 -4 34 -9 12 -20 70 -41 111 -41 23 0 49
-6 56 -13 7 -7 37 -24 66 -37 54 -24 67 -48 31 -57 -12 -4 -18 -11 -15 -20 3
-8 6 -26 6 -39 0 -25 25 -34 33 -11 2 7 11 -1 20 -18 8 -16 43 -50 77 -75 34
-25 81 -61 105 -80 74 -60 133 -101 170 -120 20 -10 42 -24 50 -30 13 -11 15
49 15 469 l0 481 -841 0 c-557 0 -838 -3 -834 -10z"/>
<path d="M3537 2388 c-13 -13 -54 -39 -90 -58 -37 -19 -67 -39 -67 -45 0 -6 7
-21 16 -33 8 -12 13 -31 9 -42 -5 -15 0 -21 19 -26 25 -6 26 -9 26 -86 l0 -79
45 -48 c44 -47 45 -50 45 -114 l0 -65 -34 -12 c-28 -9 -37 -19 -48 -53 l-13
-42 -80 0 c-76 0 -80 -1 -83 -23 -2 -14 7 -35 26 -56 25 -28 30 -45 36 -111 4
-43 3 -81 -1 -86 -4 -4 -33 -9 -63 -11 -54 -3 -55 -4 -58 -35 -2 -18 -11 -38
-20 -45 -10 -7 -18 -26 -19 -43 -7 -123 -20 -256 -26 -261 -11 -12 -60 107
-59 143 1 21 -3 33 -12 33 -7 0 -21 17 -32 37 -10 21 -33 60 -50 88 -29 46
-37 86 -21 101 4 4 9 -1 13 -10 3 -9 14 -16 24 -16 34 0 32 121 -3 128 -10 2
-17 -3 -17 -12 0 -9 -6 -16 -14 -16 -14 0 -26 98 -26 222 0 44 -4 67 -10 63
-5 -3 -10 -2 -10 4 0 5 4 12 8 15 5 3 12 101 15 217 5 182 3 216 -11 245 -13
28 -21 34 -48 34 -18 0 -36 5 -39 10 -8 13 -48 13 -61 1 -5 -6 -77 -13 -160
-17 l-150 -7 -26 26 c-14 14 -42 29 -62 32 -38 8 -53 6 -149 -16 -47 -11 -65
-11 -105 0 -26 8 -60 16 -77 18 -37 5 -95 -29 -95 -56 0 -16 -10 -19 -72 -25
-138 -11 -292 -10 -315 2 -29 16 -43 15 -43 -3 0 -9 -9 -15 -24 -15 -24 0 -36
-16 -36 -49 0 -10 -6 -31 -14 -47 -10 -21 -16 -92 -20 -254 -9 -331 -17 -524
-23 -533 -3 -4 -11 -3 -18 3 -9 8 -29 8 -66 2 -33 -6 -78 -6 -122 0 -38 5 -75
7 -83 4 -20 -8 -199 31 -259 57 -80 33 -157 77 -193 108 -32 29 -34 29 -156
29 -68 0 -148 5 -177 10 -30 6 -110 19 -179 30 -69 11 -137 23 -152 26 l-28 6
0 -816 0 -816 684 0 684 0 36 42 c20 23 36 46 36 52 0 6 27 40 60 75 33 35 60
69 60 75 0 14 69 86 82 86 5 0 8 -4 6 -8 -9 -22 -108 -151 -143 -186 -22 -23
-55 -62 -73 -88 l-33 -48 1801 0 1800 0 0 691 0 691 -57 -5 c-32 -3 -89 -10
-128 -17 -58 -9 -85 -8 -157 6 -106 20 -125 18 -323 -35 -72 -19 -88 -15 -113
30 -15 25 -22 49 -18 63 3 13 -1 54 -9 91 -14 67 -13 69 11 110 42 73 27 96
-49 76 -36 -9 -44 -8 -55 6 -7 10 -10 23 -7 31 2 7 -13 32 -34 55 -21 23 -48
61 -60 85 -34 68 -154 187 -220 219 -31 15 -59 31 -62 36 -3 5 -9 40 -12 79
-9 101 -52 169 -124 192 -17 5 -29 1 -46 -16z m207 -534 c78 -28 91 -61 23
-60 -30 1 -51 -6 -71 -21 -34 -27 -94 -31 -103 -7 -3 8 -1 20 6 27 6 6 11 27
11 47 0 52 15 63 59 44 20 -9 54 -22 75 -30z m881 -710 c28 -9 57 -22 65 -29
8 -6 23 -15 33 -18 11 -4 17 -14 15 -24 -3 -19 -65 -30 -97 -18 -14 6 -14 8 3
21 18 13 11 14 -62 14 -48 0 -82 -4 -82 -10 0 -5 8 -10 18 -11 11 0 7 -5 -13
-14 -38 -18 -95 -19 -97 -2 -2 21 -4 31 -12 64 -4 18 -5 37 -1 43 9 15 168 4
230 -16z m-1669 -436 c-3 -13 -5 -40 -5 -62 l-1 -38 -52 6 c-94 11 -561 46
-616 46 -38 0 -54 4 -58 15 -7 17 -64 21 -64 5 0 -11 -67 -12 -90 -2 -8 4 -16
13 -17 20 -4 16 40 15 402 -11 286 -21 300 -22 314 -5 9 10 20 18 25 18 6 0 5
-5 -2 -12 -7 -7 -12 -20 -12 -30 0 -22 48 -37 60 -17 7 10 12 10 26 -1 15 -13
16 -12 10 18 -7 29 -6 32 18 32 15 0 30 8 36 20 14 27 31 25 26 -2z m-626
-108 c100 -11 357 -26 383 -22 22 2 22 -9 -2 -39 -10 -13 -25 -38 -34 -56 -14
-26 -22 -31 -51 -30 -19 0 -33 4 -30 8 2 4 -1 11 -8 15 -12 8 -198 25 -424 40
l-102 7 -6 36 c-11 66 -15 63 92 56 53 -3 135 -10 182 -15z"/>
</g>
</svg>
