<?xml version="1.0" standalone="no"?>
<!DOCTYPE svg PUBLIC "-//W3C//DTD SVG 20010904//EN"
 "http://www.w3.org/TR/2001/REC-SVG-20010904/DTD/svg10.dtd">
<svg version="1.0" xmlns="http://www.w3.org/2000/svg"
 width="500.000000pt" height="500.000000pt" viewBox="0 0 500.000000 500.000000"
 preserveAspectRatio="xMidYMid meet">
<metadata>
Created by potrace 1.16, written by Peter Selinger 2001-2019
</metadata>
<g transform="translate(0.000000,500.000000) scale(0.100000,-0.100000)"
fill="#000000" stroke="none">
<path d="M62 4967 c-1 -17 -3 -41 -5 -52 -2 -15 5 -20 36 -22 20 -2 37 1 37 7
0 5 -6 10 -12 10 -7 0 -18 11 -24 25 -11 23 -10 25 23 31 37 7 66 -4 121 -46
32 -24 33 -27 26 -75 -6 -45 -5 -48 10 -36 9 8 15 20 12 28 -4 10 1 12 19 7
15 -4 25 -2 25 5 0 19 23 12 52 -16 15 -15 28 -21 28 -15 0 7 16 12 41 12 34
0 40 3 37 20 -2 10 2 19 7 20 6 0 11 -4 11 -10 1 -5 3 -12 4 -15 1 -3 3 -9 4
-14 2 -17 16 -25 16 -10 0 8 -5 20 -12 27 -9 9 -9 12 1 12 25 0 49 -43 44 -76
-4 -26 -1 -34 16 -43 17 -10 21 -9 21 4 0 8 -5 15 -12 15 -9 0 -9 3 0 12 13
13 42 -5 42 -27 0 -6 9 -20 19 -29 19 -17 19 -17 14 3 -3 13 -1 21 7 21 8 0
10 -12 5 -40 -5 -31 -2 -47 14 -74 12 -18 21 -46 21 -61 0 -16 3 -25 7 -21 4
4 8 17 8 28 0 12 6 23 13 25 7 3 12 -5 12 -22 0 -25 2 -26 17 -14 15 12 16 12
10 -3 -7 -19 8 -34 18 -19 3 6 12 8 21 4 9 -3 14 0 12 8 -2 8 5 14 17 14 14 0
19 -6 17 -17 -4 -22 21 -24 38 -3 15 18 4 36 -18 28 -16 -6 -16 -6 0 10 9 9
20 17 25 17 5 0 17 14 27 32 18 29 18 31 2 25 -10 -4 -20 -7 -22 -7 -2 0 -4
-9 -4 -20 0 -23 -15 -27 -23 -5 -4 8 5 24 22 37 36 29 53 73 24 64 -10 -3 -25
-1 -33 4 -10 6 -11 10 -2 10 17 0 15 25 -3 40 -12 10 -18 10 -32 -1 -15 -13
-16 -11 -10 24 5 30 2 41 -15 57 -26 24 -38 25 -38 5 0 -17 -71 -19 -82 -1 -5
7 -15 6 -31 -3 -32 -17 -48 -7 -45 27 3 23 -1 27 -27 30 -26 2 -30 -1 -31 -23
-3 -40 -10 -40 -51 -7 -77 64 -75 62 -62 79 12 13 16 12 39 -14 36 -40 52 -44
80 -23 29 22 19 43 -15 30 -31 -12 -52 -4 -58 21 -6 22 -61 27 -71 7 -5 -10
-7 -10 -12 0 -7 15 -74 15 -94 -1 -9 -7 -15 -28 -14 -55 0 -24 -2 -39 -5 -35
-3 4 -14 13 -23 18 -9 6 -41 27 -71 48 -41 27 -66 37 -95 37 -23 0 -43 -5 -45
-12 -4 -10 -6 -10 -6 0 -2 26 -16 10 -19 -21z"/>
<path d="M895 4990 c-3 -5 -2 -10 3 -10 6 0 13 -11 16 -25 5 -20 12 -24 34
-22 15 2 34 7 42 12 10 6 12 4 7 -9 -4 -10 -7 -29 -7 -42 0 -14 -6 -24 -14
-24 -7 0 -16 -9 -19 -20 -4 -17 -2 -20 15 -14 19 6 20 3 14 -22 -4 -16 -12
-32 -18 -35 -5 -3 0 -9 11 -12 19 -5 21 -11 17 -64 -2 -32 -4 -66 -5 -77 -1
-11 -6 -16 -15 -13 -8 3 -17 -1 -20 -9 -4 -11 -1 -14 12 -10 17 6 19 -7 21
-235 2 -233 -7 -339 -31 -339 -5 0 -4 -8 1 -18 15 -29 2 -72 -22 -69 -34 4
-32 -23 4 -30 l32 -6 -7 -211 c-4 -116 -10 -269 -12 -341 -2 -71 -6 -136 -9
-142 -6 -19 -24 -16 -33 5 -10 24 -56 92 -63 92 -9 0 2 -63 17 -97 8 -17 14
-36 14 -42 0 -6 11 -8 29 -5 28 6 29 5 35 -42 3 -27 4 -65 2 -84 -3 -30 -7
-35 -26 -32 -22 4 -22 3 -7 -13 10 -9 15 -21 12 -26 -4 -5 -1 -9 4 -9 15 0 14
-73 -1 -105 -6 -14 -19 -25 -29 -25 -9 0 -19 -7 -23 -15 -6 -18 16 -20 45 -4
19 10 20 8 14 -48 -4 -32 -7 -112 -8 -178 -1 -66 -6 -126 -11 -133 -4 -8 -3
-25 4 -42 8 -20 9 -34 1 -48 -7 -14 -8 -23 -1 -27 13 -8 13 -95 0 -95 -5 0
-10 18 -10 41 0 36 -2 40 -22 37 -19 -2 -24 -10 -26 -45 -2 -30 -8 -43 -18
-43 -8 0 -22 -4 -32 -9 -83 -42 -108 -56 -114 -65 -13 -19 -8 -28 12 -21 12 4
20 2 20 -5 0 -6 12 -2 26 9 15 12 32 21 38 21 6 0 23 7 39 14 23 13 27 13 27
1 0 -8 6 -12 14 -9 12 4 13 -16 10 -122 -2 -71 -8 -132 -13 -137 -6 -6 -4 -16
6 -25 12 -13 16 -13 23 -1 5 7 12 10 16 6 4 -4 2 -13 -4 -19 -9 -9 -8 -16 5
-30 14 -15 14 -22 3 -42 -7 -13 -9 -30 -5 -37 6 -9 2 -11 -13 -7 -15 4 -19 2
-15 -8 6 -16 -13 -19 -22 -4 -3 6 -11 10 -17 10 -6 0 -2 -11 11 -23 22 -24 21
-48 -4 -73 -8 -9 -16 -8 -29 2 -10 7 -44 16 -75 19 -31 4 -65 10 -76 15 -19 8
-171 40 -192 40 -6 0 -14 -16 -18 -36 -8 -46 -11 -42 -19 28 -6 61 -4 63 46
43 20 -8 23 2 8 25 -5 9 -26 15 -50 16 -33 1 -40 -2 -40 -17 0 -28 -18 -23
-47 12 -31 37 -70 38 -65 0 2 -15 0 -21 -7 -17 -7 5 -12 -16 -13 -63 -1 -39
-2 -79 -2 -88 -1 -14 8 -19 36 -21 21 -2 38 1 38 6 0 12 -34 42 -48 42 -17 0
-15 17 4 24 15 6 49 -22 70 -59 9 -17 25 -20 110 -22 265 -7 364 -15 364 -28
0 -7 -5 -15 -11 -17 -10 -3 -15 -49 -18 -179 l-1 -66 -42 -21 c-24 -11 -52
-23 -63 -27 -16 -5 -17 -8 -5 -16 13 -9 13 -10 0 -7 -8 3 -17 15 -21 29 -7 24
-7 24 -8 -3 -1 -16 -5 -28 -9 -28 -17 0 -21 13 -9 31 14 23 3 36 -17 20 -11
-9 -20 -9 -35 -2 -14 8 -20 8 -23 -1 -3 -8 -11 -5 -22 9 -12 13 -26 19 -39 15
-18 -5 -19 -2 -14 26 7 37 5 38 -29 16 -13 -9 -27 -14 -31 -10 -3 3 -2 6 4 6
6 0 13 6 16 13 3 9 -6 14 -30 15 -22 2 -32 -1 -28 -8 4 -6 -2 -7 -17 -2 -27 9
-100 8 -117 -2 -6 -4 -11 -1 -11 8 0 23 -37 19 -43 -4 -4 -17 -9 -19 -31 -10
-14 5 -26 6 -26 1 0 -5 -11 -8 -25 -7 -14 0 -25 4 -25 9 0 4 -4 7 -10 7 -14 0
-13 -33 2 -48 19 -19 -14 -15 -50 5 -61 35 -60 41 -62 -351 0 -256 2 -356 11
-361 8 -6 7 -10 -2 -16 -12 -8 -11 -11 1 -20 11 -8 12 -12 3 -16 -17 -6 -17
-35 -1 -52 10 -11 10 -13 1 -7 -23 13 -14 -28 12 -53 14 -13 25 -29 25 -36 0
-18 39 -30 53 -16 7 7 3 13 -16 20 -14 6 -31 19 -37 30 -9 17 -8 20 5 15 8 -4
15 -10 15 -14 0 -4 10 -7 22 -6 14 1 27 -8 34 -21 6 -13 14 -20 17 -16 12 11
8 41 -5 46 -7 2 -10 8 -5 12 11 12 38 -27 33 -47 -2 -10 0 -18 6 -18 6 0 8 13
6 30 -5 33 3 38 25 15 11 -10 23 -12 45 -5 25 7 33 5 44 -12 12 -18 15 -18 43
-4 17 9 45 16 63 16 20 0 31 4 27 10 -3 5 -1 10 4 10 15 0 14 -23 -1 -38 -9
-9 -9 -12 0 -12 7 0 12 5 12 12 0 9 3 9 12 0 10 -10 10 -15 -2 -22 -11 -7 -12
-10 -2 -10 10 0 9 -4 -3 -16 -12 -12 -13 -19 -5 -24 7 -4 1 -9 -16 -13 -31 -6
-87 11 -79 23 7 12 -32 33 -48 26 -7 -2 -4 -5 6 -5 9 -1 17 -5 17 -11 0 -5
-23 -10 -52 -10 -63 0 -54 -17 12 -22 39 -3 45 -6 46 -25 1 -27 -4 -28 -25 -9
-9 8 -28 18 -43 21 -24 6 -28 4 -28 -14 0 -25 -26 -39 -43 -22 -8 8 -7 11 6
11 9 0 17 5 17 10 0 14 -23 13 -38 -2 -10 -10 -15 -5 -24 20 -8 20 -18 30 -26
27 -7 -2 -37 9 -67 26 l-55 31 0 -85 c0 -47 4 -88 9 -92 5 -3 22 -7 38 -9 32
-5 89 -26 118 -43 32 -19 4 -15 -79 12 -42 14 -78 25 -80 25 -3 0 -5 -47 -5
-105 l-1 -105 411 0 c328 0 409 3 402 13 -14 17 -23 58 -12 51 5 -3 9 -14 9
-25 0 -10 7 -19 15 -19 8 0 15 5 15 10 0 6 5 10 11 10 6 0 8 -7 5 -16 -6 -15
0 -16 42 -11 32 4 54 1 62 -6 10 -9 11 -9 6 1 -5 8 0 12 13 12 10 0 21 -5 23
-12 3 -7 7 -6 11 5 5 13 1 17 -21 18 l-27 0 25 12 c14 6 26 12 28 13 6 3 -11
34 -19 34 -5 0 -18 9 -29 20 -22 22 -19 25 10 10 10 -6 21 -6 24 -1 10 16 -43
32 -66 20 -16 -9 -24 -7 -37 6 -15 16 -14 17 8 12 33 -8 48 11 55 68 3 34 1
52 -10 62 -11 12 -12 18 -3 29 6 8 18 14 25 14 8 0 14 7 14 15 0 8 5 15 10 15
18 0 11 -29 -9 -40 -16 -8 -19 -17 -14 -48 8 -54 20 -72 51 -73 l27 -1 -29 -7
c-26 -5 -28 -7 -13 -20 12 -9 17 -10 17 -2 0 7 8 11 17 9 10 -2 18 3 18 12 0
9 11 16 27 18 22 3 27 8 25 25 -1 17 4 23 23 25 22 2 23 1 8 -8 -10 -6 -18
-22 -18 -36 0 -16 -4 -23 -11 -18 -7 4 -10 1 -7 -7 3 -8 13 -16 23 -17 9 -2
15 0 11 6 -7 12 39 59 66 68 25 7 80 -48 72 -71 -8 -19 -8 -19 61 9 49 20 55
25 37 30 -29 10 -28 24 3 32 36 9 61 -2 46 -20 -22 -27 13 -25 42 2 15 14 27
20 27 14 0 -7 -9 -17 -20 -24 -26 -16 -25 -26 2 -30 31 -4 35 -28 4 -28 -13 0
-28 4 -31 10 -3 5 -16 10 -28 9 -12 0 -16 -3 -9 -6 6 -2 12 -12 12 -20 0 -10
-6 -13 -16 -9 -9 4 -23 1 -32 -6 -8 -7 -17 -12 -19 -10 -11 8 -22 0 -17 -13 9
-21 94 -21 94 0 0 9 13 18 31 22 20 4 38 16 47 32 15 26 56 54 66 44 3 -3 -6
-17 -20 -31 -24 -26 -33 -49 -15 -37 5 3 12 1 16 -5 7 -11 -5 -13 -42 -10 -13
1 -23 -3 -23 -8 0 -6 9 -8 20 -5 14 4 20 0 20 -11 0 -18 15 -22 25 -6 10 16
25 12 19 -5 -7 -17 11 -21 21 -5 3 5 18 10 33 9 15 0 22 -3 15 -5 -7 -3 -9
-12 -6 -20 3 -8 -1 -14 -11 -14 -9 0 -16 -4 -16 -10 0 -5 -9 -10 -21 -10 -11
0 -18 -4 -14 -10 3 -5 12 -7 20 -3 8 3 15 0 15 -7 0 -6 -4 -9 -8 -6 -4 2 -14
1 -22 -5 -10 -6 11 -9 62 -9 52 0 78 4 81 13 4 9 7 9 18 0 16 -15 83 -18 74
-3 -3 6 -2 10 4 10 5 0 13 -4 16 -10 4 -6 565 -10 1580 -10 l1575 0 0 506 c0
501 0 506 -20 501 -15 -4 -20 0 -20 15 0 17 -3 18 -15 8 -12 -10 -18 -9 -31 4
-9 10 -13 20 -9 24 4 4 10 1 12 -5 7 -19 23 -16 23 3 0 12 -7 15 -25 12 -19
-4 -25 -1 -25 13 0 12 -5 16 -15 13 -8 -4 -15 -11 -15 -18 0 -6 -11 -23 -25
-38 -30 -32 -31 -39 -7 -32 15 5 15 4 -1 -6 -10 -7 -21 -9 -24 -6 -9 8 -35
-23 -28 -34 3 -6 -1 -7 -9 -4 -9 3 -16 1 -16 -5 0 -16 -40 -35 -52 -23 -14 14
-48 3 -48 -16 0 -13 -3 -12 -14 3 -12 16 -16 17 -30 6 -11 -9 -16 -10 -16 -2
0 6 -11 11 -24 11 -30 0 -43 17 -19 23 13 3 12 5 -5 6 -13 0 -21 5 -18 9 2 4
23 6 45 4 32 -3 38 -7 34 -20 -4 -11 1 -9 14 6 11 12 29 22 39 21 18 0 18 -1
-1 -9 -19 -8 -18 -9 4 -9 14 -1 32 -8 40 -15 12 -11 21 -12 31 -5 11 8 12 12
3 16 -7 2 -13 12 -13 20 0 13 3 13 15 3 8 -7 15 -8 15 -2 0 5 -7 16 -16 23
-14 11 -18 11 -29 -4 -16 -22 -26 -22 -18 -1 5 14 3 15 -16 4 -13 -6 -25 -9
-28 -6 -4 3 -12 1 -20 -5 -9 -9 -13 -8 -13 0 0 6 6 11 13 11 8 0 7 4 -3 10
-13 8 -12 10 3 10 9 0 17 -4 17 -10 0 -5 5 -10 12 -10 9 0 9 3 1 11 -6 6 -10
17 -9 23 2 6 1 8 -1 4 -3 -5 -13 -8 -24 -8 -31 0 -22 26 10 28 21 2 30 -3 33
-16 5 -17 30 -22 68 -13 15 3 -26 19 -42 16 -10 -2 -18 1 -18 6 0 7 20 8 56 3
43 -5 55 -4 49 5 -4 7 -13 10 -21 7 -8 -3 -14 -1 -14 4 0 5 -17 11 -37 13 -34
3 -35 5 -15 12 l23 8 -28 19 c-15 11 -21 17 -13 14 8 -3 23 -9 33 -12 9 -4 17
-10 17 -15 0 -15 44 -28 52 -16 3 6 32 12 64 14 40 2 61 8 70 20 11 16 16 16
34 5 14 -8 19 -9 15 -2 -4 6 1 18 11 26 17 12 17 13 2 8 -10 -3 -18 -1 -18 5
0 6 11 11 25 11 24 0 25 3 25 59 0 38 -4 61 -12 64 -10 4 -10 6 0 6 6 1 12 5
12 10 0 13 -37 20 -48 9 -6 -6 -12 -6 -16 1 -4 5 -13 8 -20 5 -9 -3 -16 6 -20
28 -5 26 -9 30 -16 18 -8 -12 -10 -11 -10 7 0 13 -3 22 -7 22 -22 -4 -43 2
-43 11 0 9 19 8 71 -6 9 -3 19 2 22 9 4 11 -6 14 -43 13 -27 -1 -51 -4 -55 -7
-11 -12 -43 3 -48 22 -7 25 -27 25 -27 0 0 -10 -6 -21 -13 -24 -9 -3 -12 3 -9
22 3 20 0 28 -12 28 -9 0 -16 -7 -16 -15 0 -12 -3 -12 -15 -2 -8 6 -19 9 -24
6 -5 -4 -13 -1 -16 5 -4 5 -13 8 -20 5 -7 -2 -16 -2 -19 1 -9 9 -55 10 -50 1
3 -4 0 -8 -5 -8 -6 0 -11 5 -11 10 0 6 -5 10 -11 10 -5 0 -7 -6 -4 -12 4 -7 0
-5 -8 5 -10 12 -17 14 -22 7 -3 -5 -11 -8 -16 -4 -6 3 -19 -2 -29 -11 -12 -11
-26 -14 -41 -10 -26 8 -139 -14 -139 -27 0 -5 -7 -2 -16 7 -13 13 -19 14 -25
4 -6 -10 -11 -10 -23 0 -9 7 -29 11 -45 9 -26 -4 -30 -1 -42 35 -7 22 -26 49
-41 60 -15 11 -28 25 -28 30 0 5 7 3 16 -4 15 -12 16 -11 9 11 -4 14 -17 33
-29 43 -19 16 -19 17 -1 10 19 -7 19 -6 -2 29 -11 19 -24 51 -28 69 -8 39 -55
142 -66 147 -4 2 -5 12 -2 22 3 12 -1 22 -11 26 -9 3 -16 10 -16 16 0 5 5 6
10 3 6 -3 10 -1 10 4 0 6 -7 11 -15 11 -8 0 -15 5 -15 10 0 6 7 10 15 10 8 0
15 4 15 9 0 14 -26 31 -36 24 -5 -4 -3 -1 4 7 17 20 15 30 -7 30 -10 0 -24 6
-30 14 -9 11 -6 15 13 20 31 8 25 36 -8 36 -19 1 -20 1 -3 11 13 8 22 7 33 -2
8 -6 13 -14 10 -16 -2 -3 0 -19 6 -36 5 -18 10 -36 12 -42 1 -5 7 -19 13 -30
6 -11 30 -78 53 -148 l41 -128 267 7 c432 13 448 12 444 -9 -3 -16 1 -18 30
-11 18 4 65 6 105 6 58 -1 72 2 79 16 4 9 6 21 5 25 -1 5 8 6 19 2 19 -6 20
-2 20 67 0 46 -5 79 -12 87 -10 11 -10 14 0 18 9 4 12 128 11 576 -1 538 -2
569 -16 517 -19 -66 -21 -69 -33 -50 -13 20 -13 93 0 85 11 -7 13 18 4 53 -6
21 -34 32 -34 12 0 -5 -5 -10 -11 -10 -6 0 -8 9 -3 23 9 31 12 33 34 19 11 -6
26 -9 35 -6 11 5 15 0 15 -17 0 -19 -2 -21 -10 -9 -7 11 -10 12 -10 2 0 -7 7
-20 15 -28 13 -14 15 -9 15 44 0 57 -1 60 -22 55 -13 -3 -29 -10 -35 -16 -9
-7 -13 -5 -13 7 0 9 5 16 10 16 25 0 60 50 60 85 0 19 -4 35 -10 35 -6 0 -6 9
0 26 6 15 10 164 9 362 -1 197 -5 328 -10 315 -5 -13 -14 -23 -22 -23 -7 0
-20 -11 -27 -25 -14 -27 -36 -35 -26 -10 3 8 2 25 -3 37 -8 21 -8 21 -15 -5
-3 -15 -11 -27 -17 -27 -7 0 -8 7 -4 18 8 20 8 20 6 51 -1 16 -5 21 -16 18 -8
-4 -17 -2 -20 3 -4 6 -1 10 4 10 6 0 11 7 11 15 0 8 4 15 10 15 10 0 2 58 -10
75 -13 17 -16 60 -4 58 7 -1 16 16 22 37 6 23 6 40 1 40 -5 0 -9 7 -9 15 0 8
9 15 19 15 17 0 31 18 31 40 0 6 -52 30 -66 30 -2 0 -4 -9 -4 -19 0 -12 -7
-19 -18 -19 -24 1 -72 -20 -72 -31 0 -19 20 -22 48 -7 30 16 42 13 42 -11 0
-7 -11 -13 -25 -13 -15 0 -25 -6 -25 -15 0 -7 -7 -18 -15 -23 -14 -7 -14 -11
3 -33 11 -13 17 -29 15 -35 -2 -6 5 -14 17 -17 25 -7 37 -36 19 -48 -12 -7
-12 -12 -1 -30 13 -21 13 -21 -15 -14 -15 3 -28 7 -28 8 -4 19 -32 57 -42 57
-20 0 -16 -9 23 -52 l36 -40 -22 -23 -22 -23 36 -13 c33 -12 49 -29 26 -29 -5
0 -12 -16 -16 -35 -4 -24 -15 -41 -35 -52 -16 -10 -29 -21 -29 -25 0 -4 -7 -8
-15 -8 -8 0 -15 7 -15 15 0 8 -4 15 -10 15 -5 0 -10 -4 -10 -10 0 -5 -5 -10
-11 -10 -12 0 -3 37 14 59 9 11 14 9 28 -8 21 -26 32 -16 13 13 -8 13 -11 26
-8 29 4 4 1 14 -6 22 -10 12 -10 19 -2 27 14 14 16 48 3 48 -6 0 -13 -5 -16
-10 -3 -6 -17 -7 -30 -4 -26 7 -45 -18 -45 -59 0 -13 -9 -32 -20 -42 -24 -22
-36 -14 -19 12 9 15 9 25 1 39 -10 19 -11 19 -18 -1 -9 -24 -35 -45 -47 -38
-14 8 -35 -16 -34 -42 0 -14 3 -25 8 -25 17 0 9 -19 -12 -25 -19 -7 -20 -7 -2
-21 17 -12 16 -13 -9 -14 -20 0 -26 -4 -22 -15 4 -8 1 -15 -5 -15 -7 0 -9 20
-5 59 4 52 3 59 -13 57 -13 -1 -19 7 -21 27 -2 15 -8 27 -13 27 -5 0 -9 9 -9
19 0 11 -9 23 -20 26 -12 4 -20 15 -20 29 0 18 12 29 47 48 44 22 48 28 56 73
5 33 5 51 -2 53 -6 2 -11 15 -11 28 0 14 -7 27 -16 31 -11 4 -14 13 -10 29 4
14 2 24 -4 24 -19 0 -23 -30 -6 -49 20 -22 20 -31 1 -31 -13 0 -14 -4 -5 -20
8 -16 7 -25 -4 -42 -14 -19 -16 -20 -22 -5 -3 10 -4 27 -1 40 3 12 -1 31 -9
41 -13 19 -14 19 -14 1 0 -18 -1 -18 -15 1 -14 19 -14 19 -15 -3 0 -12 -4 -25
-10 -28 -15 -9 -9 -75 7 -75 22 0 39 -46 23 -65 -7 -8 -16 -12 -22 -9 -5 3
-15 1 -22 -5 -16 -13 -29 0 -41 38 -7 23 -8 23 -18 5 -6 -10 -10 -34 -8 -51 2
-28 -1 -33 -19 -33 -17 0 -20 -4 -15 -20 5 -15 3 -18 -9 -14 -26 10 -48 -20
-36 -51 14 -37 12 -55 -6 -55 -8 0 -12 5 -9 10 3 6 -3 10 -14 10 -11 0 -25 9
-31 20 -11 21 -40 28 -40 10 0 -5 -6 -10 -14 -10 -7 0 -16 -9 -19 -20 -3 -11
-14 -20 -24 -20 -10 0 -24 -5 -30 -11 -8 -8 -17 -8 -33 1 -12 6 -24 9 -27 6
-6 -6 52 -31 94 -40 16 -4 51 -18 78 -31 26 -14 55 -25 62 -25 8 0 24 -5 36
-12 28 -15 118 -47 135 -48 6 0 12 9 12 21 0 31 34 20 38 -12 4 -32 69 -69 83
-47 7 10 9 9 9 -4 0 -10 7 -18 16 -18 8 0 39 -11 67 -24 29 -13 86 -36 127
-50 91 -32 105 -40 96 -55 -13 -21 -65 -13 -81 13 -9 13 -24 26 -33 29 -15 5
-127 46 -227 83 -22 9 -69 26 -105 39 -36 13 -88 33 -117 43 -39 15 -50 17
-46 6 3 -9 -2 -14 -15 -14 -25 0 -39 19 -23 30 13 7 -5 16 -94 45 -27 9 -56
22 -64 28 -11 9 -15 9 -18 0 -6 -17 -23 -16 -23 1 0 8 -7 17 -16 20 -23 9 -36
7 -30 -3 7 -11 -22 -23 -36 -15 -7 5 -5 12 6 20 20 14 16 17 -42 37 -23 8 -42
11 -42 6 0 -5 -12 -9 -26 -9 -21 0 -25 4 -21 20 3 14 -1 21 -17 25 -37 10
-147 57 -143 61 2 2 23 -3 47 -11 56 -20 62 -19 58 7 -2 11 3 23 11 26 8 3 11
0 7 -6 -4 -6 2 -16 13 -22 11 -6 18 -16 15 -24 -5 -14 101 -66 135 -66 9 0 21
-4 27 -10 6 -6 15 -6 24 0 10 7 11 10 3 10 -7 0 -13 12 -13 26 0 14 -4 23 -9
20 -13 -8 -34 21 -27 39 9 23 29 18 23 -6 -4 -15 -2 -19 9 -15 9 3 25 1 36 -5
12 -7 18 -7 14 -1 -12 20 6 42 35 42 33 0 38 -16 12 -36 -17 -13 -17 -15 -1
-27 10 -8 15 -17 11 -20 -9 -10 10 -8 25 2 12 7 12 12 1 29 -15 24 -5 42 13
24 7 -7 17 -12 22 -12 6 0 -2 11 -19 25 l-30 24 32 1 c18 0 36 -6 40 -15 7
-12 13 -11 41 6 17 12 32 26 32 32 0 5 -8 3 -18 -6 -27 -25 -41 -21 -39 11 3
41 -41 43 -81 3 -17 -17 -33 -31 -35 -31 -3 0 -7 12 -10 27 -7 35 8 63 33 63
11 0 20 4 20 8 0 16 -12 21 -29 12 -32 -16 -116 -48 -119 -45 -9 9 25 45 40
42 10 -3 15 0 11 8 -2 8 5 23 17 35 12 12 19 28 16 37 -3 8 -6 20 -6 28 0 7
-9 15 -20 18 -22 6 -27 36 -7 56 10 10 6 11 -18 5 -16 -4 -37 -10 -45 -14 -18
-9 -93 23 -83 35 5 4 -8 5 -27 0 -61 -12 -80 -13 -80 -4 0 5 5 9 10 9 6 0 19
9 30 20 21 21 19 40 -4 40 -21 0 -87 -36 -80 -43 4 -4 -9 -14 -29 -22 -21 -8
-37 -20 -37 -25 0 -6 -11 -10 -25 -10 -14 0 -34 -6 -45 -12 -15 -10 -22 -10
-32 0 -18 18 -28 15 -28 -10 -1 -23 -1 -23 -15 2 -19 33 -18 41 2 33 12 -5 15
-2 10 10 -5 13 0 17 21 17 20 0 33 8 45 30 10 17 23 30 28 30 6 0 4 7 -5 15
-8 8 -20 15 -26 15 -6 0 -13 -7 -16 -15 -7 -17 -34 -20 -34 -4 0 6 9 13 19 16
11 3 17 11 15 17 -3 7 5 17 18 23 22 10 22 10 -9 17 -20 5 -33 14 -33 23 0 12
3 13 15 3 8 -6 19 -9 25 -5 6 4 18 1 26 -6 18 -15 27 -8 18 15 -5 12 -14 16
-31 13 -13 -2 -26 0 -29 4 -3 5 2 9 10 9 9 0 16 7 16 15 0 17 -16 20 -25 5
-11 -18 -25 -11 -25 13 0 18 -2 19 -10 7 -14 -22 -13 -100 2 -100 8 0 6 -6 -5
-17 -9 -9 -18 -15 -20 -12 -7 7 -14 109 -8 109 3 0 7 20 7 45 1 25 -2 45 -7
45 -15 0 -10 68 6 84 19 19 19 63 0 82 -13 14 -11 44 4 44 3 0 4 25 3 55 l-4
55 -107 0 -108 0 -6 -77 c-3 -43 -6 -152 -7 -243 -1 -186 -6 -230 -26 -230 -8
0 -14 4 -14 10 0 6 -9 6 -25 0 -25 -9 -25 -9 -9 15 21 32 4 32 -26 0 l-23 -25
24 -9 c13 -5 17 -10 9 -10 -12 -1 -16 -16 -18 -68 -2 -37 -6 -71 -8 -75 -3 -4
6 -8 20 -8 14 0 28 -4 31 -10 3 -6 -5 -10 -19 -10 -27 0 -43 -15 -26 -25 6 -4
7 -12 3 -18 -17 -27 -11 -35 16 -22 54 27 71 28 71 6 0 -11 -8 -24 -17 -29
-26 -13 -116 -15 -108 -2 3 5 -1 10 -10 10 -13 0 -16 -6 -11 -24 6 -26 -16
-52 -35 -41 -6 4 -18 24 -26 43 l-15 36 -18 -25 c-13 -16 -16 -27 -9 -34 6 -6
13 -5 19 5 8 13 10 13 10 -2 0 -9 7 -24 16 -32 14 -15 14 -17 -1 -32 -9 -9
-15 -28 -13 -43 3 -22 7 -26 33 -24 23 2 27 0 15 -8 -11 -8 -12 -12 -2 -16 20
-8 13 -25 -8 -18 -15 5 -20 2 -20 -12 0 -22 -42 -43 -87 -43 -23 0 -33 -5 -33
-15 0 -8 -5 -15 -12 -15 -6 0 -2 -10 11 -21 17 -16 26 -18 34 -10 17 17 45 13
50 -6 3 -11 5 -6 6 10 1 20 7 31 21 34 11 3 20 14 20 25 0 15 4 17 18 9 9 -5
30 -7 45 -4 l28 6 -22 23 c-20 21 -21 27 -10 48 8 13 11 28 8 33 -3 5 5 10 17
11 20 1 23 -2 20 -28 -3 -21 1 -30 11 -30 20 0 30 21 14 31 -20 12 -5 21 21
11 16 -6 19 -11 12 -16 -7 -4 -10 -12 -7 -17 4 -5 1 -9 -5 -9 -7 0 -10 -7 -6
-15 6 -17 -27 -55 -48 -55 -8 0 -17 -13 -21 -30 -7 -31 -38 -42 -49 -17 -3 6
-4 -1 -3 -18 2 -25 -2 -30 -20 -30 -12 0 -32 -11 -43 -23 -24 -25 -50 -29 -50
-7 0 8 6 15 13 15 8 0 7 3 -3 10 -18 11 -41 -6 -33 -26 9 -24 -17 -44 -58 -44
-29 0 -39 -5 -44 -21 -5 -15 -13 -19 -29 -15 -33 8 -66 -3 -59 -21 3 -8 12
-12 19 -9 21 8 64 -11 64 -29 0 -20 44 -37 75 -29 45 11 33 -13 -15 -30 -37
-13 -61 -32 -103 -83 -47 -56 -54 -69 -47 -89 7 -17 5 -28 -6 -39 -9 -9 -17
-35 -18 -58 -1 -43 -18 -73 -36 -62 -5 3 -10 16 -10 28 0 15 -3 18 -11 10 -15
-15 -51 -4 -45 14 4 10 1 13 -13 8 -10 -3 -24 1 -31 10 -10 13 -9 15 8 15 16
0 21 7 24 33 2 24 8 33 26 35 32 5 30 55 -4 89 -16 16 -24 33 -21 44 4 16 2
17 -14 8 -23 -12 -21 -13 -24 34 -2 36 -1 37 31 37 18 0 36 5 40 11 3 6 14 9
24 6 11 -3 21 2 24 10 8 21 8 23 -8 23 -10 0 -14 11 -13 36 1 34 2 35 32 30
35 -6 79 21 67 41 -6 9 -24 11 -68 5 -57 -7 -59 -8 -59 -37 0 -39 -23 -43 -58
-11 -25 23 -27 23 -27 6 0 -23 -32 -43 -54 -34 -9 3 -27 -1 -41 -10 -13 -9
-35 -16 -47 -16 -32 -1 -60 -24 -52 -44 4 -11 13 -14 30 -10 17 4 24 2 24 -8
0 -22 -12 -29 -27 -16 -27 22 -53 -24 -38 -67 5 -17 13 -20 41 -17 22 3 34 10
34 19 0 12 8 14 38 8 42 -7 102 -44 102 -62 0 -15 -84 -55 -88 -42 -6 15 -28
10 -53 -12 l-24 -20 27 4 c22 3 27 0 31 -22 4 -18 0 -31 -14 -41 -11 -9 -17
-19 -13 -23 12 -12 24 -8 24 8 0 20 25 19 45 -2 16 -16 16 -17 -1 -30 -10 -7
-24 -13 -32 -13 -7 0 -11 -4 -8 -9 14 -21 -211 52 -230 75 -6 8 -14 11 -17 8
-3 -4 -26 1 -51 9 -49 17 -95 60 -96 90 0 10 -4 15 -10 12 -5 -3 -10 0 -10 8
0 17 -42 47 -66 47 -18 0 -85 38 -96 54 -5 8 -14 7 -28 -1 -11 -7 -31 -13 -46
-13 -17 0 -28 -6 -31 -20 -6 -21 -28 -27 -38 -10 -3 6 -1 10 4 10 6 0 11 12
11 26 0 20 4 24 19 19 11 -3 22 -2 25 4 3 5 -5 12 -19 15 -26 7 -31 21 -15 46
6 9 5 17 -2 21 -7 5 -7 17 2 43 6 19 9 40 5 46 -3 5 0 19 9 31 10 14 13 36 9
66 -2 24 0 57 6 73 8 24 7 28 -5 23 -16 -6 -19 12 -4 22 5 3 10 23 10 43 1 20
7 51 15 67 13 29 14 29 20 8 4 -13 11 -20 16 -17 14 8 10 -16 -7 -46 -16 -26
-16 -28 5 -49 18 -18 25 -20 42 -10 16 8 28 8 45 0 19 -8 24 -7 29 10 9 28 7
29 -45 19 -55 -10 -73 7 -29 28 24 12 32 12 44 2 12 -10 19 -10 27 -2 12 12
11 13 -14 16 -16 2 -11 36 8 56 12 12 16 13 23 2 7 -11 11 -10 25 3 9 9 16 18
16 20 0 7 -46 -2 -68 -14 -29 -15 -44 -4 -19 14 15 10 16 17 6 37 -8 19 -17
24 -35 20 -21 -4 -24 -1 -24 27 0 20 -5 31 -14 31 -9 0 -12 -7 -9 -18 5 -21
-13 -72 -26 -72 -19 0 -19 31 1 89 18 53 19 65 8 86 -7 13 -17 22 -22 19 -4
-3 -8 0 -8 5 0 6 7 11 15 11 8 0 15 3 16 8 0 4 2 39 4 77 1 39 5 77 9 86 4 9
6 20 4 25 -5 16 36 74 52 74 9 0 25 7 36 15 19 14 19 14 -2 15 -34 0 -65 31
-66 65 0 17 7 71 16 120 30 164 34 145 -33 145 l-59 0 -7 -77 c-11 -129 -25
-226 -35 -238 -5 -6 -6 -21 -3 -34 5 -22 0 -71 -28 -261 -13 -90 -15 -112 -23
-210 -7 -88 -27 -190 -37 -190 -4 0 -9 -10 -13 -22 -4 -18 -8 -20 -18 -10 -16
16 -28 15 -28 -2 0 -9 12 -16 28 -18 l27 -3 -4 -80 c-3 -79 -21 -141 -29 -102
-4 18 -22 24 -22 7 0 -5 -9 -10 -21 -10 -49 0 -90 -40 -113 -112 -20 -60 -20
-78 2 -79 13 0 11 -3 -6 -10 -20 -7 -23 -14 -17 -39 6 -26 4 -30 -15 -30 -21
0 -22 3 -16 44 7 42 6 44 -19 44 -14 0 -28 -4 -31 -9 -3 -5 -10 -9 -15 -9 -6
0 -7 5 -3 12 10 15 12 58 3 58 -4 0 -12 -7 -19 -15 -15 -19 -37 -21 -22 -2 5
6 6 21 2 32 -6 17 -9 13 -19 -22 -14 -50 0 -83 31 -75 17 4 16 0 -7 -34 -14
-21 -23 -44 -20 -52 3 -8 2 -19 -2 -25 -12 -19 -9 -59 4 -64 7 -3 13 -11 13
-19 0 -18 60 -7 78 15 11 14 12 13 7 -6 -9 -32 13 -29 25 2 9 24 52 49 73 42
5 -1 -4 -16 -20 -32 -16 -17 -32 -38 -36 -47 -3 -10 -13 -18 -20 -18 -8 0 -22
-9 -33 -21 -18 -20 -18 -20 9 -14 36 9 36 -12 1 -25 -23 -9 -26 -15 -20 -41 7
-38 -18 -52 -40 -21 -15 22 -40 20 -59 -5 -14 -18 -58 -5 -52 16 2 9 -2 23
-10 30 -13 11 -14 10 -11 -10 2 -15 -2 -23 -10 -21 -7 1 -15 -5 -18 -13 -12
-30 -23 -14 -22 30 0 25 -2 49 -6 52 -3 4 0 16 7 27 7 12 14 36 15 55 2 18 6
41 11 50 14 26 10 71 -6 71 -8 0 -13 6 -10 13 2 6 10 11 16 10 15 -4 14 14 -1
20 -10 3 -10 9 0 26 6 11 12 29 12 39 0 10 4 22 9 27 5 6 12 21 15 35 l7 25
-14 -24 c-14 -24 -15 -23 -18 28 -2 30 -1 102 3 160 4 58 10 188 13 289 4 143
2 182 -8 177 -6 -4 -1 2 12 13 15 12 20 21 12 23 -10 4 -12 50 -10 194 2 105
3 256 4 336 l0 147 -117 1 c-72 1 -119 -2 -123 -9z m2507 -1215 c100 -14 152
-26 211 -50 14 -6 17 -2 17 19 0 23 2 25 19 16 11 -5 30 -10 44 -10 30 0 36
-6 30 -31 -6 -22 -41 -26 -49 -4 -7 16 -24 21 -24 6 0 -5 21 -22 48 -37 26
-15 58 -34 72 -43 18 -12 22 -12 16 -2 -6 9 -5 12 5 9 8 -3 13 -13 11 -23 -3
-13 1 -16 17 -12 11 2 28 -1 38 -9 26 -19 36 -17 30 6 -3 11 -2 20 3 20 4 0
10 -9 13 -20 3 -11 0 -20 -6 -20 -6 0 -1 -9 11 -20 26 -24 28 -32 7 -24 -26
10 -17 -2 59 -82 41 -42 87 -101 101 -131 15 -29 32 -56 37 -59 5 -3 6 -20 3
-36 -5 -21 -4 -28 4 -24 7 4 11 -1 11 -13 0 -11 11 -46 25 -77 14 -31 25 -58
25 -60 0 -2 -12 -4 -27 -3 -22 0 -24 2 -10 8 17 6 15 10 -12 45 -17 21 -31 47
-31 56 0 10 -9 29 -20 43 -22 27 -26 42 -10 32 13 -8 13 1 0 25 -7 12 -17 17
-28 14 -14 -5 -15 -4 -2 5 13 10 13 13 -4 26 -11 8 -28 15 -37 15 -10 0 -24 6
-31 13 -7 7 -51 41 -98 76 -113 82 -130 99 -130 127 0 17 -14 33 -57 61 -75
49 -107 61 -166 62 -26 1 -64 8 -84 16 -19 8 -42 15 -51 15 -8 0 -43 13 -76
29 -34 16 -83 31 -109 35 -52 6 -57 -7 -7 -17 52 -11 34 -27 -22 -20 -61 7
-68 10 -48 23 8 6 10 10 4 10 -15 0 -83 -54 -111 -88 -24 -29 -33 -99 -11 -86
7 4 8 3 4 -4 -12 -20 -26 -13 -26 13 0 24 -23 35 -34 17 -3 -5 -20 -9 -38 -9
-18 -1 -26 2 -18 4 8 3 23 12 32 20 9 8 22 12 27 8 6 -3 11 -1 11 4 0 6 7 11
15 11 8 0 15 5 15 10 0 20 79 90 122 110 53 24 136 26 290 5z m-1585 -325 c23
-8 33 -21 42 -51 10 -34 20 -43 67 -66 29 -14 54 -31 54 -38 0 -8 21 -15 58
-20 31 -3 67 -13 79 -21 29 -18 39 -18 47 3 9 24 -40 71 -89 85 -22 6 -35 12
-30 14 11 4 74 -16 233 -75 94 -34 102 -38 102 -52 0 -6 -15 -1 -34 10 -39 24
-124 52 -130 43 -2 -4 -6 -20 -10 -35 -4 -18 -12 -27 -20 -24 -11 4 -13 -8 -9
-57 4 -39 1 -66 -5 -70 -6 -4 -10 1 -10 11 2 24 -43 94 -81 126 -67 56 -167
41 -218 -35 -16 -22 -36 -48 -45 -59 -12 -12 -13 -19 -5 -22 9 -3 9 -9 -1 -26
-7 -12 -8 -21 -2 -21 5 0 10 -14 10 -31 0 -20 -4 -29 -12 -26 -12 4 -14 9 -17
50 0 9 -9 18 -18 18 -15 1 -15 2 1 6 18 5 18 6 -4 18 -21 11 -24 20 -22 52 2
35 1 37 -12 19 -10 -12 -23 -17 -36 -13 -16 4 -20 0 -20 -19 0 -28 15 -31 29
-7 5 10 13 15 17 10 10 -10 6 -99 -5 -110 -14 -14 -30 1 -24 23 4 14 0 20 -12
20 -13 0 -16 -6 -12 -26 2 -15 1 -41 -4 -58 -4 -17 -10 -66 -14 -110 -3 -43
-8 -82 -11 -87 -11 -19 10 -37 34 -28 27 10 27 18 3 61 -14 25 -16 40 -10 63
8 27 13 31 49 32 23 1 50 5 61 8 21 7 28 -20 7 -28 -8 -3 0 -16 22 -37 33 -31
34 -32 9 -27 -34 8 -57 -10 -65 -50 -6 -30 -4 -33 17 -33 13 0 31 -5 39 -10
11 -7 7 -10 -20 -11 -19 -1 -50 -1 -68 0 -24 2 -38 -4 -51 -21 -22 -27 -19
-38 12 -39 17 -1 18 -2 5 -6 -10 -2 -18 -9 -18 -14 0 -5 -9 -9 -19 -9 -10 0
-21 -7 -25 -15 -4 -12 4 -15 40 -15 25 0 43 -4 40 -9 -3 -5 -16 -7 -27 -4 -16
5 -20 2 -17 -8 3 -8 11 -13 18 -11 8 2 10 -3 5 -15 -5 -10 -8 -29 -8 -42 1
-16 -2 -20 -7 -11 -6 9 -13 4 -24 -19 -9 -17 -20 -31 -25 -31 -9 0 -26 91 -24
126 1 18 -10 25 -75 43 -106 31 -252 107 -252 131 0 4 28 -1 63 -12 34 -11 88
-20 119 -20 69 0 158 20 158 35 3 60 12 116 21 134 9 17 9 26 0 37 -11 13 -9
20 8 42 16 20 18 30 10 40 -7 8 -9 27 -5 46 6 32 13 95 15 151 1 28 21 39 21
12 0 -8 7 -15 16 -15 9 0 14 8 13 18 -3 32 1 42 16 42 10 0 15 -10 15 -30 0
-16 4 -30 9 -30 5 0 12 -9 16 -19 7 -24 57 -21 86 5 23 21 16 32 -8 13 -15
-12 -16 -12 -10 5 6 14 4 17 -9 12 -57 -22 -82 -17 -46 10 16 13 16 13 0 14
-24 0 -23 17 2 25 11 3 23 18 26 33 3 15 11 38 17 52 6 14 13 30 16 35 2 6 -7
0 -21 -12 -26 -25 -43 -29 -53 -13 -4 6 -3 9 2 8 4 -2 9 0 11 5 1 4 -1 7 -4 6
-8 -1 -24 22 -24 34 0 4 7 7 15 7 8 0 15 5 15 10 0 12 0 12 37 0z m223 -264
c17 -22 36 -20 19 2 -11 13 -8 12 9 -3 18 -15 25 -16 31 -6 6 9 13 0 25 -28
16 -42 22 -83 6 -46 -8 19 -9 18 -11 -5 -1 -14 -2 -31 -2 -37 1 -7 -2 -13 -6
-13 -3 0 -6 -16 -7 -35 0 -22 -9 -44 -24 -60 -28 -30 -39 -26 -16 7 9 12 16
39 16 58 0 20 5 41 11 47 16 16 1 37 -16 23 -7 -6 -19 -8 -28 -4 -8 3 -18 1
-22 -5 -7 -13 -54 8 -74 33 -11 13 -11 16 3 16 9 0 25 6 36 13 14 8 23 9 28 2
4 -5 17 -16 30 -23 23 -13 23 -13 7 17 -8 17 -24 35 -34 40 -10 6 -21 17 -25
26 -4 12 -2 13 13 6 10 -6 23 -17 31 -25z m-895 -45 c-3 -6 -15 -11 -26 -11
-10 0 -19 -7 -19 -15 0 -8 5 -15 10 -15 6 0 10 -7 10 -16 0 -8 -4 -12 -10 -9
-5 3 -12 -6 -16 -21 -4 -16 -2 -29 6 -34 6 -4 11 -9 9 -11 -1 -2 1 -14 5 -26
6 -19 11 -21 33 -12 30 11 63 3 63 -16 0 -7 -12 -16 -27 -20 -31 -7 -73 -38
-73 -53 0 -5 7 -15 15 -22 17 -14 20 -50 5 -50 -5 0 -19 -9 -30 -20 -12 -12
-24 -19 -29 -16 -11 7 -3 130 9 134 6 2 7 42 3 107 l-6 104 34 20 c33 20 46
21 34 2z m3771 -50 c-20 -22 -20 -31 0 -31 13 0 14 -3 5 -14 -10 -11 -10 -20
-1 -36 7 -12 10 -31 7 -41 -4 -13 2 -23 16 -31 21 -11 21 -12 -11 -20 -50 -13
-109 33 -118 91 -4 25 -2 31 13 31 17 1 17 1 1 14 -25 18 -23 39 2 31 15 -5
20 -2 20 12 0 16 6 18 41 15 37 -4 39 -5 25 -21z m-2379 -46 c-22 -16 -21 -25
1 -23 40 3 54 -2 48 -18 -6 -15 1 -16 54 -10 56 6 60 6 60 -13 0 -11 5 -23 10
-26 6 -3 10 -1 10 4 0 6 11 11 24 11 24 0 41 -23 30 -41 -3 -5 -1 -9 5 -9 5 0
11 6 14 13 3 9 8 9 16 1 20 -18 -20 -40 -65 -35 -7 0 -15 11 -19 24 l-8 22 -4
-23 c-3 -15 -10 -22 -18 -18 -19 7 -31 -14 -14 -25 11 -6 11 -11 1 -21 -10
-10 -15 -8 -28 10 -9 13 -20 19 -27 15 -20 -12 -87 -12 -100 1 -6 7 -41 19
-76 28 -52 12 -61 13 -46 2 18 -13 18 -14 -3 -14 -12 0 -22 4 -22 9 0 5 -9 13
-20 16 -31 10 -24 33 13 40 37 9 47 20 47 58 0 17 5 27 15 27 17 0 18 -10 6
-62 -9 -40 0 -60 32 -71 18 -7 24 7 8 18 -6 3 -6 18 0 38 6 21 6 33 -1 35 -5
2 -10 14 -10 27 0 19 6 24 33 27 42 4 54 -2 34 -17z m299 10 c34 -18 61 -19
66 -4 5 16 127 -8 156 -32 14 -10 32 -19 41 -19 10 0 12 3 5 8 -6 4 -15 18
-19 30 -7 24 -7 24 20 6 14 -9 24 -23 21 -30 -4 -10 5 -14 32 -15 35 -1 34 -2
-13 -10 -27 -5 -57 -12 -65 -16 -8 -3 -18 -5 -22 -5 -4 1 -38 -13 -75 -32
-111 -55 -132 -67 -139 -77 -6 -11 -80 -59 -90 -59 -10 0 78 70 108 86 31 16
39 28 11 16 -10 -4 -55 -29 -101 -56 l-84 -50 35 -20 c59 -36 107 -84 101
-100 -7 -19 -31 -2 -118 81 -30 28 -68 59 -85 67 -17 9 -31 19 -31 21 0 6 31
-6 57 -23 20 -13 27 -11 70 14 119 68 171 92 215 98 26 4 50 12 54 17 4 7 -10
8 -40 4 -40 -6 -46 -5 -46 10 0 13 -6 16 -25 11 -14 -4 -25 -3 -25 1 0 5 -10
13 -22 18 -21 10 -42 58 -30 69 7 8 6 8 38 -9z m-1742 -360 c-6 -59 -5 -65 12
-65 18 -1 18 -1 2 -14 -21 -15 -24 -71 -5 -80 10 -5 10 -7 0 -12 -23 -10 -13
-39 20 -60 36 -24 61 -16 69 21 3 13 6 6 9 -18 4 -33 2 -38 -19 -44 -14 -3
-27 -1 -32 7 -6 9 -12 9 -29 -1 -11 -8 -21 -17 -21 -21 0 -3 -3 -15 -6 -25 -5
-17 -5 -17 9 0 13 16 15 16 21 1 11 -29 6 -54 -14 -71 -24 -21 -28 -83 -6 -83
8 0 17 12 20 26 5 19 10 24 18 16 6 -6 8 -19 4 -29 -9 -24 -8 -29 9 -25 7 1
17 -2 20 -8 10 -15 -26 -52 -43 -45 -10 4 -12 0 -8 -11 4 -10 -6 -31 -25 -56
-38 -47 -56 -39 -40 18 8 29 7 60 -4 124 -8 47 -14 105 -14 130 0 25 -2 59 -3
75 -2 20 1 29 9 28 10 -2 11 15 6 72 -4 51 -2 75 5 75 7 0 9 19 5 55 -4 38 -2
55 6 55 6 0 11 7 11 15 0 8 5 15 10 15 7 0 8 -23 4 -65z m2444 -123 c33 -21
20 -26 -18 -7 -17 9 -36 15 -42 13 -6 -2 3 -10 20 -17 34 -14 37 -18 23 -39
-10 -17 -171 -72 -209 -72 -21 0 -23 -3 -12 -10 18 -11 162 -6 212 8 21 5 35
6 33 1 -18 -28 -288 -44 -284 -16 4 29 -2 44 -16 44 -10 0 -13 -6 -9 -19 4
-13 1 -16 -10 -12 -9 3 -16 15 -16 25 0 21 -11 24 -27 8 -6 -6 -17 -9 -25 -7
-18 7 72 63 142 89 30 12 78 22 107 23 28 1 55 4 58 8 8 8 45 -2 73 -20z
m-1483 -216 c18 -13 18 -16 4 -33 -17 -20 -39 -107 -39 -158 0 -32 -71 -155
-90 -155 -5 0 -12 24 -17 53 -8 45 -6 58 14 100 13 26 27 47 31 47 14 0 45 69
38 85 -6 17 19 75 32 75 5 0 17 -6 27 -14z m2880 -36 c8 -26 -3 -60 -19 -60
-22 0 -107 -73 -102 -86 6 -17 -31 -44 -50 -37 -10 3 -16 -5 -20 -25 -5 -23
-13 -31 -36 -36 -36 -7 -44 -3 -51 24 -4 15 1 22 21 27 16 4 27 2 30 -5 7 -21
19 -12 15 11 -3 16 4 27 26 42 18 12 31 29 31 41 0 12 11 26 28 35 15 8 33 20
40 27 7 6 18 12 23 12 5 0 14 11 19 25 11 30 36 33 45 5z m-3235 -219 c-14
-26 -13 -31 5 -25 17 7 21 -26 5 -42 -5 -5 -12 -25 -14 -43 -2 -19 -10 -38
-19 -42 -8 -5 -18 -20 -21 -34 -4 -14 -11 -25 -17 -25 -6 0 -7 -5 -4 -10 9
-14 -13 -40 -33 -40 -13 0 -12 3 2 19 17 19 17 19 -6 15 -20 -5 -21 -4 -8 8 8
8 29 29 45 48 l30 34 -29 -22 c-15 -12 -32 -20 -36 -17 -9 6 -1 56 12 72 6 7
4 13 -4 15 -10 4 -11 8 -1 20 7 8 9 19 5 23 -4 5 -1 5 6 0 9 -5 24 5 44 29 32
39 56 49 38 17z m334 -259 c32 -61 116 -83 171 -45 22 15 39 17 30 4 -3 -5 -1
-12 5 -16 5 -3 10 -12 10 -18 0 -8 -18 -11 -57 -9 -40 3 -55 1 -48 -7 6 -5 34
-11 63 -12 45 -2 56 -7 72 -29 11 -15 33 -33 50 -40 16 -7 27 -16 24 -21 -3
-5 0 -9 5 -9 6 0 11 -7 11 -15 0 -8 -4 -15 -10 -15 -5 0 -10 -7 -10 -15 0 -20
79 -21 105 -1 14 10 26 11 43 5 13 -5 42 -9 65 -9 86 -1 231 -28 245 -47 7
-10 18 -17 24 -15 5 1 16 -2 23 -8 7 -5 25 -8 41 -5 36 7 46 -1 62 -46 19 -55
17 -59 -28 -54 -33 4 -38 3 -33 -10 4 -13 0 -15 -21 -9 -14 3 -26 2 -26 -3 0
-5 -27 -9 -61 -7 -77 2 -134 -13 -117 -33 8 -10 23 -12 52 -7 23 3 37 2 33 -2
-5 -5 -13 -9 -19 -9 -13 0 -25 -21 -34 -60 -6 -27 -7 -28 -14 -10 -6 13 -9 15
-9 5 -1 -10 -10 -5 -27 15 -14 17 -22 24 -18 16 6 -11 3 -13 -12 -7 -33 13
-38 12 -41 -9 -3 -16 -2 -17 6 -5 5 8 13 11 16 8 11 -11 -5 -28 -26 -28 -10 0
-19 -4 -19 -10 0 -5 -5 -10 -10 -10 -6 0 -10 6 -9 13 3 23 -1 37 -11 37 -5 0
-6 -8 -3 -17 6 -16 5 -16 -10 -4 -13 10 -17 10 -17 1 0 -10 -3 -10 -15 0 -12
10 -15 10 -15 0 0 -7 -7 -10 -14 -7 -9 4 -17 -2 -21 -13 -4 -13 -12 -17 -23
-13 -15 6 -15 5 -3 -10 20 -25 -4 -21 -28 4 -11 12 -24 18 -30 14 -6 -3 -11
-1 -11 4 0 11 13 15 38 12 6 -1 12 3 12 9 0 5 -9 10 -20 10 -14 0 -20 6 -19
23 1 12 3 16 5 7 8 -28 55 -41 99 -28 34 10 37 13 16 16 -13 2 -31 10 -38 18
-12 12 -10 14 16 14 17 0 31 5 31 11 0 7 -11 9 -30 6 -17 -4 -30 -2 -30 3 0
15 -41 12 -73 -5 -15 -8 -25 -10 -22 -5 4 6 -1 10 -9 10 -19 0 -22 20 -3 21 6
0 1 4 -11 10 -13 5 -28 7 -32 4 -5 -3 -10 1 -13 7 -3 10 -7 10 -18 2 -8 -7
-33 -10 -58 -7 -24 2 -55 2 -68 -2 l-24 -6 21 -26 c22 -28 30 -87 8 -65 -7 7
-20 12 -31 12 -11 0 -15 4 -11 12 5 7 2 9 -8 5 -11 -4 -18 1 -22 16 -7 29 -52
51 -52 26 0 -11 6 -15 15 -11 11 4 13 1 8 -12 -6 -14 -3 -17 8 -12 9 3 13 2
10 -4 -3 -5 7 -18 22 -27 34 -22 40 -43 13 -43 -12 0 -25 10 -32 25 -6 14 -17
25 -25 25 -23 0 -28 1 -40 12 -8 6 -18 6 -31 -1 -11 -6 -22 -7 -26 -4 -3 3 -6
1 -6 -6 0 -7 -5 -9 -11 -5 -7 4 -10 1 -7 -7 4 -11 21 -13 71 -11 43 3 67 0 67
-7 0 -6 -6 -8 -14 -5 -8 3 -19 -3 -26 -15 -11 -22 -44 -28 -56 -10 -4 7 0 9
13 5 12 -4 25 -1 33 9 16 20 -5 20 -50 1 -30 -12 -31 -14 -14 -24 16 -9 16
-11 3 -12 -9 0 -24 15 -33 33 -9 19 -16 25 -16 15 0 -12 -5 -15 -17 -11 -12 5
-15 2 -10 -10 9 -24 -15 -21 -43 6 -14 12 -26 21 -27 20 -9 -8 -43 -1 -43 8 0
6 9 9 20 6 24 -6 27 8 4 21 -12 7 -13 11 -5 16 7 4 19 2 27 -5 8 -7 26 -13 39
-14 20 0 22 2 13 19 -8 15 -8 21 1 24 6 2 11 8 11 14 0 5 -9 6 -20 3 -12 -4
-26 -2 -33 3 -12 10 -40 15 -64 13 -7 0 -13 -14 -13 -30 0 -25 -3 -28 -21 -24
-18 5 -19 7 -5 15 9 5 16 17 16 27 0 11 7 21 15 25 8 3 12 12 9 21 -4 8 1 17
10 21 9 3 16 14 16 24 0 10 7 23 15 30 8 7 15 19 15 26 0 8 4 14 9 14 5 0 11
12 13 27 3 26 4 26 20 9 10 -9 23 -14 29 -11 5 4 18 0 27 -8 30 -25 50 -27 74
-6 13 12 17 19 8 16 -9 -3 -24 1 -35 9 -10 8 -27 14 -36 14 -10 0 -21 9 -24
20 -3 11 -11 20 -16 20 -5 0 -9 7 -9 16 0 9 5 12 13 8 7 -5 7 -1 -2 10 -9 11
-11 20 -5 24 6 4 15 32 21 62 20 103 31 140 41 140 4 0 25 16 46 36 l40 36 11
-38 c6 -22 19 -54 29 -72z m1136 -250 c0 -4 12 -8 27 -7 19 0 29 -6 31 -19 10
-49 83 -87 114 -59 21 18 24 8 6 -17 -7 -9 -3 -5 10 10 49 55 52 57 82 52 l30
-4 -28 -33 c-15 -18 -39 -40 -54 -49 -16 -10 -28 -24 -28 -33 0 -13 -3 -13
-15 -3 -13 11 -14 10 -9 -6 3 -10 -6 -1 -20 21 -17 25 -25 31 -21 17 6 -19 3
-21 -17 -18 -13 3 -29 5 -37 5 -9 1 -11 8 -8 24 6 21 6 21 -13 -3 -19 -25 -19
-25 -34 -5 -9 11 -14 30 -11 43 3 14 2 21 -4 18 -5 -3 -12 1 -15 10 -9 25 -7
64 4 64 6 0 10 -4 10 -8z m-2001 -82 l24 0 -21 -23 c-12 -13 -22 -27 -22 -33
0 -5 5 -2 10 6 5 8 14 15 19 15 6 0 16 8 24 19 11 16 19 17 43 9 23 -8 29 -16
27 -37 -2 -31 5 -34 15 -6 8 20 8 20 31 -4 l23 -24 -41 -26 c-22 -14 -45 -26
-51 -26 -5 0 -10 -5 -10 -11 0 -6 -7 -9 -15 -5 -8 3 -15 1 -15 -4 0 -14 -74
-62 -78 -50 -2 5 -13 1 -25 -10 -29 -28 -57 -26 -57 4 0 13 -3 37 -6 53 -5 24
-1 35 18 53 17 17 18 21 6 17 -14 -5 -18 -1 -18 16 0 49 11 67 41 67 16 0 29
5 29 12 0 9 3 9 12 0 7 -7 23 -12 37 -12z m3187 -174 c8 -3 14 -1 14 3 0 5 9
7 20 4 11 -3 20 -9 20 -14 0 -5 7 -6 15 -3 8 4 15 12 15 20 0 17 17 19 22 3 2
-7 32 -13 72 -14 42 -1 71 -7 76 -15 5 -9 9 -9 15 -1 5 9 10 9 21 0 12 -10 10
-14 -10 -25 -26 -13 -66 -8 -78 10 -5 7 -8 6 -9 -4 0 -10 -3 -8 -9 5 -8 19 -9
19 -9 -2 -1 -17 -7 -23 -25 -23 -14 0 -28 4 -31 10 -3 6 1 7 9 4 9 -4 16 -1
16 6 0 9 -10 11 -30 7 -16 -4 -30 -2 -30 3 0 5 -12 7 -27 5 -16 -2 -36 -4 -45
-4 -26 -1 -22 -21 4 -21 12 0 18 -3 15 -7 -8 -8 -140 -4 -186 5 -27 6 -36 14
-42 35 -6 21 -5 26 4 19 32 -25 170 -42 182 -22 3 6 -1 10 -9 10 -18 0 -19 2
-9 27 7 16 8 16 11 1 2 -9 10 -19 18 -22z m-628 -246 c-20 -12 -13 -51 8 -43
8 3 14 12 14 21 0 13 4 11 16 -6 9 -13 20 -19 27 -15 27 18 62 8 90 -27 l28
-35 -21 -17 c-12 -10 -26 -18 -31 -18 -14 0 -11 18 4 23 6 3 -4 4 -23 2 -48
-3 -50 -4 -50 -16 0 -8 6 -7 17 2 15 12 16 12 10 -5 -7 -17 -6 -17 10 -5 15
12 16 12 10 -3 -5 -13 -1 -18 13 -18 11 0 20 5 20 11 0 6 8 9 18 6 61 -20 62
-20 62 -1 0 16 2 16 9 4 6 -8 7 -18 4 -24 -3 -5 -1 -6 5 -2 6 3 13 2 17 -4 3
-5 11 -10 17 -10 6 0 3 9 -7 20 -10 11 -16 20 -12 20 3 0 12 3 21 6 9 3 16 1
16 -6 0 -6 -4 -8 -10 -5 -5 3 -10 2 -10 -4 0 -5 4 -12 10 -16 5 -3 7 -12 3
-20 -3 -10 2 -15 16 -15 20 0 25 -11 24 -49 -1 -9 2 -10 10 -2 14 14 50 15 42
1 -4 -6 7 -13 24 -16 28 -6 29 -8 19 -28 -7 -11 -13 -25 -13 -31 0 -5 -8 -9
-18 -9 -13 1 -15 -2 -8 -10 17 -20 -1 -36 -22 -21 -15 11 -16 18 -8 33 6 11 7
22 4 26 -10 9 -34 -15 -26 -27 4 -6 0 -8 -10 -4 -20 8 -24 -18 -4 -27 6 -3 3
-5 -8 -3 -23 2 -45 -10 -45 -24 0 -5 9 -9 20 -9 11 0 20 -4 20 -10 0 -6 -9 -6
-24 0 -13 5 -27 6 -30 3 -3 -4 -9 8 -12 26 -6 30 -24 54 -24 31 0 -7 -8 -9
-20 -5 -11 4 -20 2 -20 -4 0 -6 3 -10 8 -10 18 3 32 -2 32 -11 0 -5 -12 -10
-27 -10 -33 0 -26 -9 10 -12 14 -1 24 -5 21 -7 -5 -5 -17 -7 -85 -14 -13 -1
-15 -6 -6 -24 8 -17 14 -20 28 -13 23 13 42 13 34 0 -4 -6 -10 -8 -15 -5 -5 3
-12 1 -15 -5 -4 -6 -22 -9 -42 -5 -31 4 -34 3 -24 -9 11 -13 9 -13 -13 -3 -34
16 -35 45 -1 42 16 -2 25 2 25 10 0 10 -10 12 -37 8 -26 -4 -34 -3 -29 6 4 6
10 9 14 7 4 -2 13 2 20 10 14 16 9 17 -36 8 l-31 -6 19 -36 c22 -40 11 -67
-21 -59 -10 3 -20 1 -23 -4 -2 -5 -3 -4 -2 3 2 7 11 12 20 12 24 -2 20 5 -9
16 -14 5 -25 14 -25 20 0 14 37 12 43 -2 2 -7 8 -10 12 -6 4 4 -6 20 -23 36
-29 28 -42 30 -42 10 0 -5 5 -6 10 -3 6 3 10 2 10 -4 0 -25 -22 -18 -56 16
-20 21 -34 30 -31 21 8 -23 6 -22 -37 3 -19 11 -41 17 -47 13 -8 -5 -10 -2 -7
7 4 10 -2 15 -19 17 -14 1 -22 -2 -18 -8 4 -6 11 -7 17 -4 7 5 8 2 4 -5 -5 -7
0 -18 10 -26 20 -15 16 -19 -10 -9 -9 3 -16 12 -16 19 0 10 -5 11 -25 2 -13
-7 -20 -13 -15 -15 6 -2 10 -10 10 -17 0 -16 40 -31 49 -18 11 17 41 24 35 8
-8 -19 26 -23 56 -8 31 16 47 16 56 2 6 -11 -40 -59 -58 -59 -4 0 -8 -4 -8
-10 0 -5 7 -10 16 -10 8 0 12 5 9 10 -3 6 3 10 14 10 12 0 21 4 21 8 0 4 9 8
20 8 21 0 25 -12 12 -33 -5 -8 -13 -9 -22 -3 -8 5 -22 4 -34 -2 -17 -9 -18
-11 -3 -20 10 -5 21 -7 26 -4 5 3 11 -1 15 -9 6 -17 2 -18 -42 -9 -21 4 -29
11 -25 20 3 10 0 12 -10 8 -12 -4 -15 1 -12 21 1 15 9 31 16 36 9 6 -1 8 -27
6 -36 -2 -40 -4 -38 -26 1 -13 8 -28 16 -32 8 -5 4 -8 -12 -7 -14 1 -33 8 -43
16 -16 15 -16 16 3 37 l21 23 -24 5 c-13 4 -34 16 -47 27 -34 29 -58 22 -28
-8 9 -9 9 -12 -2 -13 -8 -1 -19 -1 -23 0 -5 1 -6 -3 -2 -8 3 -6 12 -8 20 -4 8
3 15 0 15 -5 0 -13 -36 -26 -49 -18 -5 3 -7 16 -3 29 5 20 4 21 -11 8 -26 -21
-20 -5 8 24 21 20 24 27 13 38 -7 8 -21 12 -31 9 -14 -3 -17 -11 -13 -28 4
-14 2 -24 -4 -24 -5 0 -10 5 -10 10 0 11 -30 13 -54 4 -9 -3 -16 -11 -16 -16
0 -6 -11 -19 -25 -30 -14 -11 -25 -29 -24 -41 l1 -22 6 21 c11 34 63 73 87 63
14 -5 16 -8 5 -9 -8 -2 -19 -2 -23 -1 -5 1 -11 -8 -14 -19 -3 -11 -11 -19 -19
-18 -7 2 -13 -1 -13 -7 0 -5 14 -9 32 -8 99 8 159 4 151 -8 -8 -13 10 -11 23
2 6 6 16 8 22 5 15 -10 14 -29 -1 -23 -7 2 -33 -6 -58 -19 -60 -32 -88 -32
-58 0 7 7 22 11 33 9 16 -4 16 -2 -5 11 -28 17 -54 21 -45 7 3 -5 1 -12 -4
-15 -5 -4 -12 -2 -16 4 -8 13 -82 13 -90 0 -3 -5 -15 -10 -27 -10 -17 0 -18 2
-8 15 7 9 8 15 2 15 -5 0 -8 8 -5 19 4 14 -1 18 -24 17 -20 -1 -28 -6 -28 -19
0 -10 -9 -25 -20 -33 -17 -13 -18 -16 -5 -24 8 -5 11 -10 5 -11 -58 -7 -67 -7
-72 7 -3 9 -17 20 -30 25 -13 5 -21 13 -18 19 10 16 -18 12 -43 -6 -13 -9 -26
-13 -30 -9 -4 4 -2 10 4 12 6 2 20 11 30 19 10 9 14 13 8 10 -7 -3 -24 1 -40
9 -25 13 -29 12 -42 -6 -7 -10 -17 -17 -22 -14 -9 6 -24 -22 -24 -49 -1 -10
-8 -20 -17 -21 -14 -3 -14 2 3 37 11 22 18 54 16 71 -2 25 2 34 20 42 26 11
29 25 6 25 -9 0 -32 -16 -51 -36 -27 -28 -37 -33 -44 -23 -4 7 -11 10 -15 6
-8 -8 -34 11 -34 25 0 6 7 8 15 4 8 -3 15 -1 15 4 0 17 -20 21 -47 7 -35 -17
-63 -11 -63 12 0 13 -8 18 -30 18 -35 0 -40 -13 -9 -22 29 -9 64 -45 45 -45
-8 0 -18 4 -21 10 -3 5 -17 9 -29 8 -22 -2 -23 -3 -9 -25 18 -27 17 -28 -17
-37 -16 -5 -20 -4 -12 2 11 7 11 18 2 51 -6 22 -15 41 -20 41 -13 0 -13 -17 0
-25 6 -4 8 -10 5 -15 -3 -5 -1 -11 4 -15 6 -3 1 -15 -10 -26 -11 -11 -23 -19
-25 -16 -3 3 2 12 11 20 14 15 14 18 -5 37 -18 18 -24 18 -22 -1 1 -10 -33 -7
-39 4 -4 5 -12 -6 -18 -25 -7 -20 -18 -35 -28 -35 -13 0 -13 2 3 14 13 9 14
13 3 13 -18 -1 -59 -35 -59 -49 0 -6 -5 -11 -11 -11 -5 0 -7 4 -4 10 9 14 -2
12 -29 -5 -21 -14 -24 -14 -29 0 -5 10 0 15 13 15 23 0 89 67 89 90 0 12 -2
11 -10 -3 -6 -9 -14 -15 -20 -12 -5 4 -9 2 -9 -3 0 -18 -28 -21 -42 -4 -10 12
-10 14 0 8 7 -4 15 -1 18 8 3 9 10 13 15 11 5 -3 11 7 15 22 4 15 12 31 18 35
17 12 61 9 73 -3 13 -13 33 -4 33 17 0 24 17 15 30 -16 12 -29 32 -42 27 -17
-1 6 6 11 16 11 9 -1 17 2 17 7 0 5 -11 9 -24 9 -14 0 -27 4 -30 9 -3 4 6 7
19 5 14 -1 28 2 31 8 4 6 10 5 15 -3 7 -11 9 -11 9 -1 0 8 5 10 13 6 9 -5 9
-4 1 5 -6 7 -21 13 -33 14 -27 2 -27 5 2 17 18 7 19 9 3 9 -12 1 -16 6 -13 16
4 8 1 17 -5 21 -7 5 -9 -2 -6 -19 3 -17 0 -28 -9 -31 -24 -10 -33 -7 -33 9 0
8 7 15 16 15 11 0 15 6 11 19 -7 30 34 32 90 5 70 -34 73 -35 73 -18 0 10 -6
14 -14 11 -18 -7 -35 11 -29 32 4 15 11 17 44 11 21 -4 39 -3 39 1 0 5 -5 9
-11 9 -22 0 3 18 31 22 22 3 29 1 26 -8 -2 -6 4 -14 15 -17 10 -3 19 -1 19 5
0 5 5 6 10 3 6 -3 10 -2 10 3 0 6 14 15 32 21 24 9 34 8 41 -1 6 -9 10 -10 13
-2 3 7 13 10 23 7 10 -3 40 3 67 12 65 23 95 26 113 12 8 -7 12 -7 9 -2 -4 6
0 19 8 30 13 18 15 18 27 1 13 -18 14 -18 32 0 12 13 20 15 22 7 3 -9 12 -9
30 -2 14 5 28 8 30 5 3 -2 -6 -8 -19 -12 -22 -7 -22 -7 -3 -15 25 -10 99 -11
109 -2 11 12 40 12 47 1 4 -6 17 -12 30 -13 13 -2 33 -7 44 -11 l20 -7 -20 23
-20 24 25 -16 c23 -14 27 -14 40 0 13 14 12 15 -5 9 -19 -7 -19 -6 -2 7 14 11
15 15 5 20 -7 3 -2 4 12 3 14 -1 28 -6 33 -12 4 -6 10 -6 15 2 4 7 22 12 39
10 26 -2 30 -5 22 -20 -6 -9 -6 -16 -2 -15 4 1 19 -4 31 -11 13 -7 26 -10 29
-7 3 3 -2 8 -11 12 -9 3 -13 11 -9 17 3 6 1 7 -5 3 -7 -4 -12 -2 -12 3 0 6 8
11 17 11 13 0 14 3 5 12 -17 17 -15 31 3 24 8 -3 15 -1 15 4 0 6 -8 10 -17 10
-14 1 -12 4 7 15 14 8 30 14 35 14 6 0 3 -4 -7 -9z m396 -69 c-4 -20 -1 -30
10 -34 8 -3 18 -2 21 4 4 5 1 8 -6 7 -7 -2 -15 5 -17 14 -5 24 25 13 39 -13
11 -22 31 -16 22 6 -8 22 10 18 31 -7 15 -18 16 -20 2 -15 -9 4 -16 2 -16 -3
0 -6 -8 -10 -17 -10 -16 -1 -16 -2 1 -15 26 -20 37 -19 29 2 -4 11 -3 14 5 9
7 -4 12 -14 12 -22 0 -11 6 -13 22 -9 15 6 20 4 16 -6 -4 -10 5 -14 33 -14 21
0 41 3 44 7 4 4 13 4 21 1 19 -7 18 7 -3 22 -14 11 -12 12 15 11 18 0 32 -4
32 -9 0 -4 12 -5 28 -2 15 3 21 2 15 -1 -21 -9 -15 -27 6 -21 12 3 22 -1 25
-9 6 -16 42 -19 51 -4 9 15 17 12 50 -16 l30 -25 -28 11 c-16 5 -36 10 -45 10
-13 0 -13 -2 3 -14 18 -13 18 -14 -8 -9 -16 3 -27 1 -27 -6 0 -6 -10 -9 -22
-7 -13 3 -25 5 -27 5 -3 1 4 8 15 16 16 14 14 14 -14 0 -19 -9 -39 -29 -46
-47 -12 -27 -14 -28 -19 -9 -3 12 -2 21 3 21 4 0 10 10 13 21 l6 21 -20 -21
c-12 -12 -18 -28 -15 -36 4 -11 -2 -13 -22 -11 -15 2 -21 1 -14 -1 18 -6 11
-23 -19 -42 -23 -15 -23 -15 -9 3 10 13 11 20 4 23 -7 2 -10 12 -7 21 2 10 -4
26 -15 35 -17 15 -20 16 -25 3 -4 -10 -1 -13 7 -10 8 3 17 0 22 -7 8 -13 -35
-54 -45 -43 -3 4 0 9 7 11 6 3 12 9 12 14 0 4 -7 6 -15 3 -8 -4 -15 -1 -15 5
0 21 -19 11 -34 -19 -10 -22 -11 -30 -3 -29 30 4 57 -2 57 -12 0 -5 -5 -7 -12
-3 -6 4 -17 -1 -24 -11 -8 -10 -25 -20 -40 -21 -22 -2 -25 0 -21 18 6 20 5 20
-12 2 -10 -11 -16 -23 -13 -29 3 -5 -2 -4 -11 4 -15 12 -15 15 6 33 20 18 21
19 2 14 -20 -6 -20 -6 -1 9 11 8 27 15 35 16 12 0 10 3 -4 9 -20 8 -20 9 1 9
26 1 74 37 74 56 0 10 -12 13 -47 11 -66 -5 -138 4 -121 15 11 8 11 10 0 18
-10 6 -8 10 9 14 13 4 26 3 29 -2 3 -5 14 -5 25 -1 16 6 12 10 -25 20 -25 8
-48 13 -52 12 -4 -1 -4 6 -1 14 4 12 2 15 -8 12 -8 -3 -13 -13 -13 -22 1 -9
-2 -16 -7 -16 -5 0 -9 7 -9 15 0 11 -8 13 -30 9 -22 -5 -30 -3 -30 7 0 17 -37
42 -50 34 -14 -8 0 -35 15 -29 7 3 16 1 19 -4 3 -5 -7 -12 -24 -14 -27 -4 -29
-2 -26 24 4 37 7 39 44 32 19 -4 32 -13 32 -21 0 -12 3 -13 15 -3 8 6 20 8 26
4 8 -4 9 -3 5 4 -9 16 -5 15 32 -4 18 -8 32 -20 32 -25 0 -5 4 -9 10 -9 6 0 6
9 0 26 -15 38 -13 64 5 58 10 -4 12 -15 9 -33z m-2164 -262 c-18 -32 -4 -34
24 -4 15 16 26 23 26 18 0 -6 -7 -16 -15 -23 -8 -7 -15 -17 -15 -23 0 -5 8 -3
18 6 17 15 20 15 40 1 18 -12 26 -13 37 -4 8 7 15 18 15 25 0 15 27 28 41 19
5 -3 6 -11 2 -17 -27 -43 -3 -54 48 -22 39 25 42 26 60 9 11 -9 21 -15 23 -13
1 2 9 13 15 24 9 15 11 16 7 3 -7 -22 12 -24 20 -3 4 8 13 15 21 15 10 0 13
-6 9 -16 -3 -9 -6 -20 -6 -25 0 -5 -5 -9 -10 -9 -6 0 -21 -9 -32 -20 -14 -13
-24 -16 -29 -9 -3 6 -10 11 -15 10 -5 0 -8 8 -6 19 4 26 -15 35 -23 10 -4 -11
-11 -18 -16 -15 -5 3 -6 0 -3 -8 6 -17 -21 -43 -31 -27 -3 5 -1 10 5 10 6 0 9
4 5 10 -3 5 -20 1 -39 -10 -32 -17 -46 -17 -46 1 0 4 6 9 13 12 6 2 1 2 -13 0
-14 -2 -32 -11 -40 -20 -8 -9 -10 -13 -3 -9 20 11 23 -9 3 -22 -12 -7 -21 -8
-25 -2 -3 6 -15 10 -26 10 -10 0 -19 5 -19 11 0 6 6 9 13 6 6 -2 20 0 29 5 14
7 15 13 6 33 -13 29 -31 23 -23 -8 2 -12 2 -16 -1 -9 -10 21 -53 -25 -64 -70
-6 -21 -15 -38 -21 -38 -6 0 -7 5 -4 10 4 6 9 23 11 38 3 15 12 38 21 51 12
18 12 25 3 31 -15 9 -5 60 11 60 6 0 6 -7 -1 -21z m-760 -259 c10 0 1 -40 -13
-57 -5 -7 -20 -11 -34 -9 -19 4 -23 1 -19 -12 3 -9 -1 -25 -9 -36 -13 -17 -15
-17 -30 -2 -11 11 -22 13 -33 7 -9 -4 -24 -6 -32 -4 -10 3 -9 0 4 -11 10 -8
15 -19 11 -25 -10 -17 -25 -13 -19 4 4 8 1 15 -5 15 -6 0 -11 7 -11 16 0 11
-6 14 -22 8 -13 -3 -24 -11 -26 -15 -2 -5 -16 -9 -31 -9 -20 0 -31 7 -39 25
-9 20 -9 23 3 18 8 -3 15 0 15 7 0 8 9 11 25 8 14 -3 25 -1 25 4 0 5 19 6 45
2 31 -4 45 -3 45 5 0 7 9 9 24 5 31 -7 97 13 94 29 -1 7 2 28 7 47 9 34 9 34
13 8 2 -16 7 -28 12 -28z m-527 -27 c36 -3 61 -11 64 -20 4 -11 8 -11 21 -1
22 19 74 16 94 -4 22 -22 22 -25 1 -31 -15 -4 -14 -6 5 -12 30 -10 10 -25 -31
-25 -19 0 -27 -4 -24 -12 2 -7 13 -11 23 -10 14 3 16 1 8 -8 -15 -15 -80 -9
-77 8 2 6 -2 12 -7 12 -6 0 -10 -9 -10 -20 0 -11 -7 -20 -15 -20 -8 0 -12 6
-9 14 4 11 0 13 -15 9 -23 -6 -27 -19 -8 -26 6 -3 2 -6 -10 -6 -12 -1 -24 3
-27 7 -6 10 -86 2 -86 -9 0 -5 -5 -9 -10 -9 -6 0 -5 8 2 20 8 12 20 19 30 17
11 -3 15 0 11 9 -2 7 -10 11 -17 8 -7 -3 -19 2 -26 11 -10 12 -10 15 5 15 15
0 16 2 4 16 -12 15 -11 16 11 10 23 -6 23 -6 8 7 -21 17 -14 27 19 27 13 0 23
5 23 10 0 6 -8 10 -17 10 -10 0 -25 5 -33 11 -12 8 -10 9 10 5 14 -3 51 -9 83
-13z"/>
<path d="M317 4696 c-3 -7 -15 -16 -26 -19 -12 -3 -19 -1 -15 4 3 5 1 9 -4 9
-16 0 -21 -13 -12 -31 8 -14 6 -21 -11 -29 -15 -8 -19 -18 -15 -33 5 -20 4
-21 -8 -4 -16 21 -26 22 -26 2 0 -8 5 -15 10 -15 6 0 10 -4 10 -10 0 -5 -7
-10 -15 -10 -8 0 -15 4 -15 8 0 5 -18 15 -40 22 l-40 13 22 25 c19 21 20 24 5
19 -10 -4 -23 -7 -28 -7 -5 0 -9 -7 -9 -16 0 -9 -6 -14 -12 -11 -7 2 -13 12
-13 22 0 21 -20 31 -30 16 -3 -6 -15 -11 -26 -11 -16 0 -19 -7 -19 -40 0 -35
3 -40 23 -40 30 0 70 -41 61 -63 -3 -10 -11 -17 -17 -17 -8 0 -8 -3 0 -11 14
-14 67 -3 85 18 10 13 10 17 1 20 -7 3 -13 16 -13 30 0 23 -2 24 -40 18 -31
-5 -41 -3 -46 9 -10 27 5 38 34 22 15 -8 52 -24 82 -36 30 -13 67 -31 83 -42
27 -19 36 -51 17 -63 -16 -10 -12 -25 5 -19 8 4 15 15 15 25 0 10 4 19 8 19
15 0 42 -36 42 -55 0 -18 1 -18 15 1 13 18 14 18 15 1 0 -10 5 -15 11 -12 12
8 49 -23 49 -41 0 -7 -6 -15 -12 -18 -10 -5 -10 -7 0 -12 6 -3 12 -12 12 -21
0 -10 6 -12 19 -8 27 8 36 -13 15 -36 -27 -30 -7 -36 23 -7 l26 26 -22 23
c-31 34 -25 44 11 17 18 -13 41 -27 52 -33 30 -16 30 -34 0 -46 -37 -14 -13
-30 27 -19 16 5 29 6 29 3 0 -3 7 0 15 7 10 9 12 17 6 23 -5 5 -7 15 -5 22 7
17 -16 31 -26 15 -9 -15 -32 -4 -94 48 -25 20 -55 44 -67 53 -25 17 -19 39 11
39 10 0 22 5 25 11 12 18 -2 21 -32 6 -33 -17 -54 -15 -90 8 l-25 17 27 28
c26 27 26 27 4 33 -18 5 -21 11 -17 37 3 21 0 34 -9 37 -18 7 -17 59 3 67 8 3
12 10 9 16 -9 14 -22 12 -28 -4z"/>
<path d="M1845 3919 c-4 -12 -16 -30 -27 -41 -11 -11 -17 -26 -14 -34 3 -8 1
-14 -4 -14 -6 0 -10 3 -10 8 0 13 -53 33 -63 23 -12 -12 0 -31 19 -31 19 0 18
-34 -1 -50 -9 -7 -13 -15 -11 -18 3 -2 -1 -17 -9 -32 -8 -15 -12 -36 -9 -47 3
-12 1 -24 -5 -27 -17 -11 -13 -29 6 -22 9 4 20 1 25 -6 6 -10 13 -7 28 12 l20
25 6 -22 c3 -13 10 -20 15 -17 5 3 9 -2 9 -10 0 -9 5 -16 11 -16 5 0 8 -4 5
-9 -4 -5 3 -7 14 -4 11 3 20 10 20 15 0 6 -7 8 -15 4 -10 -3 -15 1 -15 13 0
11 -6 21 -12 24 -10 3 -9 8 2 22 14 17 13 18 -15 12 -26 -6 -28 -6 -13 6 9 7
17 22 16 33 0 10 3 32 7 48 6 23 5 28 -6 24 -8 -3 -24 1 -34 9 -19 14 -18 15
11 8 31 -6 33 -4 50 42 9 26 21 52 26 58 13 15 9 35 -6 35 -8 0 -18 -9 -21
-21z"/>
<path d="M0 3710 c0 -9 11 -32 25 -52 26 -38 32 -72 16 -83 -5 -3 -12 -1 -16
5 -13 20 -25 -2 -25 -45 l0 -44 32 16 c68 34 68 34 68 18 0 -8 5 -15 10 -15 6
0 10 -7 10 -15 0 -8 -4 -15 -10 -15 -5 0 -10 5 -10 11 0 5 -4 7 -10 4 -6 -4
-5 -13 3 -26 14 -23 -2 -39 -40 -39 -21 0 -25 -5 -22 -26 0 -4 -5 -10 -13 -15
-8 -5 -14 -36 -16 -87 l-4 -80 25 5 c20 4 28 -1 43 -25 16 -28 51 -48 62 -37
7 6 -18 35 -30 35 -17 0 -58 53 -67 88 -8 26 -7 38 4 49 19 19 19 27 0 19 -28
-10 -15 13 23 41 20 15 41 34 45 40 10 17 37 17 37 1 0 -9 4 -8 10 2 16 24 12
-7 -4 -39 -13 -24 -13 -28 4 -39 11 -7 16 -18 13 -30 -3 -13 2 -21 16 -25 18
-4 31 -27 62 -106 5 -13 12 -21 16 -17 3 3 1 16 -5 29 -23 46 -31 98 -19 118
6 10 17 19 23 19 20 0 82 -60 88 -86 4 -14 11 -22 16 -19 6 4 17 -1 26 -9 15
-15 34 -21 34 -11 0 15 -34 85 -41 85 -5 0 -8 8 -7 18 1 9 0 27 0 39 l-2 22
-25 -24 c-30 -31 -39 -31 -58 -2 -25 38 -54 67 -66 67 -6 0 -10 11 -9 25 2 16
8 25 19 25 21 0 72 58 63 72 -4 5 -15 1 -28 -10 -27 -26 -129 -48 -135 -30 -2
6 -13 21 -25 33 -12 12 -20 30 -18 43 2 12 -1 22 -7 22 -5 0 -26 26 -45 57
-20 32 -36 51 -36 43z"/>
<path d="M291 2896 c2 -24 1 -42 -3 -39 -5 2 -8 0 -8 -6 0 -5 -10 -11 -22 -13
-12 -2 -23 -9 -26 -17 -3 -9 0 -11 8 -6 9 5 10 2 5 -14 -9 -28 20 -29 35 -1
13 24 28 26 37 4 4 -10 -1 -20 -11 -26 -13 -7 -16 -17 -12 -34 6 -22 5 -24
-13 -15 -11 6 -21 16 -23 23 -4 10 -10 10 -31 1 -26 -12 -27 -12 -33 27 -6 39
-24 46 -24 9 0 -10 -5 -19 -11 -19 -7 0 -9 11 -6 30 7 32 0 60 -14 60 -5 0 -9
-20 -9 -44 0 -35 -5 -48 -28 -67 -16 -13 -32 -32 -35 -43 -6 -14 -15 -17 -39
-14 -32 5 -32 5 -10 -13 12 -9 22 -28 21 -41 0 -21 -1 -21 -8 -3 -8 19 -8 19
-20 -3 -7 -13 -11 -49 -9 -85 3 -54 6 -62 23 -62 11 -1 26 -4 33 -8 6 -5 17
-5 24 -1 8 5 9 2 3 -12 -4 -10 -9 -32 -11 -49 -1 -16 -7 -31 -13 -33 -6 -2
-11 -10 -11 -18 0 -8 -7 -28 -15 -45 -19 -36 -8 -63 11 -28 7 13 13 33 14 43
0 32 12 9 15 -29 2 -43 -15 -61 -44 -46 -11 6 -22 11 -25 11 -12 0 -6 -49 7
-54 9 -5 9 -7 0 -12 -7 -3 -13 -13 -13 -22 0 -14 1 -14 13 0 6 9 22 19 34 22
18 6 20 4 16 -14 -3 -12 -12 -24 -20 -27 -24 -9 -33 -46 -14 -60 13 -10 14
-15 4 -32 -17 -27 8 -36 34 -12 10 10 23 16 29 14 13 -4 24 28 24 70 0 20 6
30 20 34 11 3 20 14 20 24 0 22 9 23 45 7 24 -11 25 -15 25 -99 0 -74 2 -87
15 -83 12 5 15 27 15 113 0 96 3 111 29 166 16 33 36 69 45 80 15 20 15 19 16
-6 0 -15 -11 -47 -25 -70 -30 -53 -31 -69 -5 -69 22 0 26 -20 10 -48 -5 -9
-14 -28 -20 -42 -5 -14 -16 -33 -22 -44 -10 -15 -10 -19 0 -23 15 -6 16 -43 0
-43 -8 0 -8 -3 -2 -9 12 -13 184 -26 185 -15 0 5 2 17 4 27 2 9 -1 17 -7 17
-7 0 -7 5 1 13 13 16 -4 37 -30 37 -10 0 -20 6 -22 13 -4 9 -8 9 -15 -1 -5 -8
-18 -12 -28 -10 -14 2 -20 13 -22 42 -2 21 1 42 7 45 5 4 12 54 16 111 9 151
14 191 27 184 7 -5 9 -36 5 -93 -4 -47 -3 -80 1 -74 6 10 17 10 46 2 28 -8 49
-7 81 2 43 13 51 29 15 29 -24 0 -31 23 -19 59 11 30 33 33 51 7 5 -7 8 -4 8
6 0 24 18 32 38 17 13 -11 13 -9 -2 8 -10 12 -16 29 -13 38 4 8 3 15 -2 15 -5
0 -11 -9 -14 -20 -3 -11 -10 -20 -16 -20 -7 0 -9 10 -5 26 7 25 5 26 -25 22
-27 -4 -34 -1 -42 19 -11 29 -29 30 -29 1 0 -17 -3 -19 -12 -10 -10 10 -10 17
1 34 12 20 11 20 -21 14 -18 -3 -38 -7 -45 -8 -8 -1 -10 -12 -6 -30 5 -23 3
-27 -11 -22 -9 4 -16 1 -16 -6 0 -7 -9 -1 -20 13 -11 14 -20 29 -20 34 0 9 31
31 42 29 4 -1 14 9 23 21 12 18 13 25 2 46 -19 36 -16 81 6 85 12 2 17 -3 17
-18 0 -12 5 -18 10 -15 17 10 11 33 -10 40 -11 3 -20 11 -20 16 0 6 5 7 10 4
6 -3 10 3 10 14 0 12 6 20 13 19 6 -2 12 4 12 12 0 8 -7 15 -15 15 -8 0 -21 8
-28 18 -7 9 -19 17 -27 17 -7 0 -19 13 -26 29 -7 17 -24 35 -37 41 -24 10 -24
10 -21 -34z"/>
<path d="M234 1790 l-11 -155 -1 138 c-1 83 -6 137 -12 137 -5 0 -10 -16 -10
-36 l0 -36 -67 4 -67 3 -7 -30 c-4 -16 -7 -25 -8 -20 -4 26 -30 -45 -31 -82 0
-23 -5 -45 -10 -48 -6 -3 -10 -17 -10 -31 0 -24 1 -24 98 -26 53 0 105 -1 115
0 11 1 17 -5 17 -18 0 -19 -5 -20 -116 -13 l-115 6 2 -87 c2 -47 5 -83 8 -79
10 14 34 14 42 1 5 -8 9 -9 9 -2 0 7 11 9 25 6 14 -2 25 0 25 6 0 11 18 11 38
-1 15 -10 15 -2 2 23 -7 14 -5 19 10 23 13 3 20 0 20 -9 0 -8 5 -14 10 -14 6
0 9 3 9 8 -4 25 4 33 12 12 7 -18 12 -21 18 -11 7 10 9 9 14 -3 4 -9 12 -16
19 -15 10 0 10 2 1 6 -7 2 -13 11 -13 19 0 9 5 12 13 8 10 -6 10 -4 0 7 -33
35 4 34 42 -1 14 -13 25 -18 25 -12 0 6 -4 14 -10 17 -5 3 -10 11 -10 16 0 6
6 7 13 2 6 -4 19 -8 27 -8 8 -1 31 -11 50 -23 23 -14 36 -18 41 -10 4 6 17 8
28 5 18 -4 21 -2 16 16 -5 22 -5 22 6 1 9 -17 75 -44 109 -44 16 0 12 30 -5
36 -8 4 -12 10 -9 16 3 5 13 3 23 -6 10 -9 21 -13 24 -9 4 3 16 -2 27 -12 19
-18 20 -17 20 3 0 21 1 21 20 5 26 -22 59 -26 66 -8 4 8 10 12 15 9 5 -3 9 4
9 16 0 20 -4 21 -105 19 -58 -1 -109 1 -112 5 -4 3 -40 7 -82 7 -42 1 -89 5
-106 9 -21 6 -1 8 63 8 51 -1 95 2 98 5 5 5 -75 12 -241 21 -33 2 -61 8 -63
15 -2 6 1 11 7 11 12 0 14 222 2 305 -6 42 -9 24 -17 -105z"/>
<path d="M4227 1714 c-3 -3 -3 -12 -1 -19 8 -20 -10 -26 -76 -26 -33 0 -60 -5
-60 -10 0 -5 6 -9 13 -9 8 0 7 -3 -3 -9 -8 -6 -18 -7 -23 -4 -5 3 -6 -9 -2
-28 9 -44 11 -46 35 -52 11 -3 18 -1 15 3 -3 5 27 7 67 5 42 -2 78 1 85 7 9 7
13 7 13 -1 0 -6 6 -11 14 -11 8 0 16 -5 18 -10 2 -6 14 -11 28 -12 14 0 35 -5
48 -11 15 -7 26 -8 30 -2 4 6 14 10 22 10 8 0 15 9 15 20 0 26 36 31 68 10 14
-9 27 -12 30 -8 3 5 33 8 66 7 43 0 61 3 61 12 0 16 86 10 108 -8 13 -11 14
-10 8 10 -7 21 -6 22 20 10 22 -10 28 -10 32 0 3 10 7 10 19 1 9 -8 17 -9 21
-3 8 13 64 13 73 0 11 -14 29 4 29 29 0 22 -3 23 -50 21 -27 -2 -50 1 -50 5 0
5 -15 6 -32 3 -18 -4 -68 -8 -110 -9 -43 -2 -87 -6 -98 -10 -12 -4 -30 2 -47
14 -40 29 -83 38 -83 17 0 -13 -5 -14 -26 -6 -14 6 -23 6 -20 1 4 -5 -7 -4
-23 2 -22 8 -36 8 -54 0 -14 -7 -30 -8 -38 -3 -8 6 -16 4 -21 -3 -5 -8 -13 -6
-27 7 -11 10 -27 16 -35 13 -8 -3 -20 1 -27 9 -10 12 -8 16 11 21 22 6 23 7 4
14 -24 10 -39 11 -47 3z"/>
<path d="M1242 110 c-22 -39 -44 -51 -57 -30 -3 6 -13 10 -21 10 -13 0 -13 -3
2 -17 16 -17 16 -18 1 -21 -9 -2 -17 -10 -17 -19 0 -12 -3 -13 -14 -4 -11 9
-18 8 -30 -4 -9 -9 -16 -18 -16 -19 0 -2 38 -4 85 -5 53 -1 85 2 85 9 0 5 7
10 15 10 8 0 15 -4 15 -10 0 -5 14 -10 31 -10 43 0 109 21 109 34 0 6 16 12
35 13 44 2 65 5 65 10 0 5 -40 43 -46 43 -3 0 -2 -10 1 -21 7 -21 5 -22 -34
-15 -33 5 -41 3 -41 -9 0 -8 -7 -15 -16 -15 -9 0 -12 5 -8 12 5 8 2 9 -10 5
-10 -4 -21 -7 -24 -7 -4 0 0 -5 8 -10 11 -7 11 -10 2 -10 -7 0 -23 9 -34 20
l-22 20 31 -6 c36 -7 54 11 21 22 -13 4 -26 12 -30 18 -6 8 -8 7 -8 -1 0 -7
-8 -13 -17 -13 -13 0 -15 3 -5 8 10 7 8 13 -6 30 -11 12 -21 22 -23 22 -2 0
-14 -18 -27 -40z"/>
</g>
</svg>
